<svg width="301" height="64" viewBox="0 0 301 64" fill="none" xmlns="http://www.w3.org/2000/svg">
<path d="M125.435 12.8V51.2H118.768V21.0667H118.679L106.768 51.2H102.324L90.1461 21.0667H90.0572V51.2H83.9238V12.8H93.5238L104.546 41.2445H104.724L116.368 12.8H125.435V12.8ZM130.946 15.7333C130.946 14.6667 131.302 13.7778 132.102 13.0667C132.902 12.3556 133.791 12 134.857 12C136.013 12 136.99 12.3556 137.702 13.0667C138.413 13.7778 138.857 14.6667 138.857 15.7333C138.857 16.8 138.502 17.6889 137.702 18.4C136.902 19.1111 136.013 19.4667 134.857 19.4667C133.702 19.4667 132.813 19.1111 132.102 18.4C131.39 17.6 130.946 16.7111 130.946 15.7333ZM138.146 23.6445V51.2H131.657V23.6445H138.146ZM157.791 46.4889C158.768 46.4889 159.835 46.3111 160.99 45.7778C162.146 45.3333 163.213 44.7111 164.191 44V50.0445C163.124 50.6667 161.968 51.1111 160.635 51.3778C159.302 51.6445 157.879 51.8222 156.279 51.8222C152.191 51.8222 148.902 50.5778 146.413 48C143.835 45.4222 142.59 42.1333 142.59 38.2222C142.59 33.7778 143.924 30.1333 146.502 27.2889C149.079 24.4445 152.724 23.0222 157.524 23.0222C158.768 23.0222 160.013 23.2 161.168 23.4667C162.413 23.7333 163.39 24.1778 164.102 24.5333V30.7556C163.124 30.0445 162.057 29.4222 161.079 29.0667C160.013 28.7111 158.946 28.4445 157.879 28.4445C155.302 28.4445 153.257 29.2445 151.657 30.9333C150.057 32.6222 149.346 34.8445 149.346 37.6889C149.346 40.4445 150.146 42.6667 151.657 44.1778C153.168 45.6889 155.213 46.4889 157.791 46.4889ZM182.591 23.2C183.124 23.2 183.568 23.2 184.013 23.2889C184.457 23.3778 184.813 23.4667 185.079 23.5556V30.1333C184.724 29.8667 184.279 29.6 183.568 29.4222C182.857 29.2445 182.146 29.0667 181.168 29.0667C179.568 29.0667 178.235 29.7778 177.168 31.1111C176.102 32.4445 175.479 34.4889 175.479 37.3333V51.2H168.99V23.6445H175.479V28H175.568C176.191 26.4889 177.079 25.3333 178.235 24.4445C179.479 23.6445 180.902 23.2 182.591 23.2ZM185.435 37.8667C185.435 33.3333 186.768 29.6889 189.257 27.0222C191.835 24.3556 195.391 23.0222 199.924 23.0222C204.191 23.0222 207.568 24.2667 209.968 26.8445C212.368 29.4222 213.613 32.8889 213.613 37.2445C213.613 41.6889 212.279 45.2445 209.791 47.9111C207.213 50.5778 203.746 51.9111 199.302 51.9111C195.035 51.9111 191.657 50.6667 189.168 48.1778C186.679 45.6 185.435 42.1333 185.435 37.8667ZM192.191 37.6C192.191 40.4445 192.813 42.6667 194.146 44.1778C195.479 45.6889 197.346 46.4889 199.746 46.4889C202.057 46.4889 203.924 45.7778 205.168 44.1778C206.413 42.6667 207.035 40.4445 207.035 37.4222C207.035 34.4889 206.413 32.2667 205.168 30.6667C203.924 29.1556 202.057 28.3556 199.835 28.3556C197.435 28.3556 195.657 29.1556 194.324 30.7556C192.813 32.4445 192.191 34.6667 192.191 37.6ZM223.302 30.9333C223.302 31.8222 223.568 32.6222 224.191 33.1556C224.813 33.6889 226.057 34.3111 228.102 35.1111C230.679 36.1778 232.546 37.3333 233.524 38.5778C234.591 39.9111 235.124 41.4222 235.124 43.2889C235.124 45.8667 234.146 47.9111 232.102 49.5111C230.146 51.1111 227.391 51.8222 224.013 51.8222C222.857 51.8222 221.613 51.6445 220.191 51.3778C218.768 51.1111 217.613 50.7556 216.635 50.3111V43.9111C217.791 44.7111 219.124 45.4222 220.457 45.8667C221.791 46.3111 223.035 46.5778 224.191 46.5778C225.613 46.5778 226.768 46.4 227.391 45.9556C228.102 45.5111 228.457 44.8889 228.457 43.9111C228.457 43.0222 228.102 42.3111 227.391 41.6C226.679 40.9778 225.257 40.2667 223.302 39.4667C220.902 38.4889 219.213 37.3333 218.235 36.0889C217.257 34.8445 216.724 33.2445 216.724 31.2889C216.724 28.8 217.702 26.7556 219.657 25.1556C221.613 23.5556 224.191 22.7556 227.302 22.7556C228.279 22.7556 229.346 22.8445 230.502 23.1111C231.657 23.3778 232.724 23.6445 233.524 23.9111V30.2222C232.635 29.6889 231.657 29.1556 230.502 28.7111C229.346 28.2667 228.191 28.0889 227.124 28.0889C225.879 28.0889 224.902 28.3556 224.279 28.8C223.657 29.4222 223.302 30.0445 223.302 30.9333ZM237.879 37.8667C237.879 33.3333 239.213 29.6889 241.702 27.0222C244.279 24.3556 247.835 23.0222 252.368 23.0222C256.635 23.0222 260.013 24.2667 262.413 26.8445C264.813 29.4222 266.057 32.8889 266.057 37.2445C266.057 41.6889 264.724 45.2445 262.235 47.9111C259.657 50.5778 256.191 51.9111 251.746 51.9111C247.479 51.9111 244.102 50.6667 241.613 48.1778C239.213 45.6 237.879 42.1333 237.879 37.8667ZM244.635 37.6C244.635 40.4445 245.257 42.6667 246.591 44.1778C247.924 45.6889 249.791 46.4889 252.191 46.4889C254.502 46.4889 256.368 45.7778 257.613 44.1778C258.857 42.6667 259.479 40.4445 259.479 37.4222C259.479 34.4889 258.857 32.2667 257.613 30.6667C256.368 29.1556 254.502 28.3556 252.279 28.3556C249.879 28.3556 248.102 29.1556 246.768 30.7556C245.346 32.4445 244.635 34.6667 244.635 37.6ZM287.657 28.9778H277.968V51.2H271.391V28.9778H266.768V23.6445H271.391V19.8222C271.391 16.9778 272.368 14.5778 274.235 12.7111C276.102 10.8445 278.502 9.95557 281.435 9.95557C282.235 9.95557 282.946 10.0445 283.568 10.0445C284.191 10.0445 284.724 10.2222 285.168 10.4V16C284.991 15.9111 284.546 15.7333 284.013 15.5556C283.479 15.3778 282.857 15.2889 282.146 15.2889C280.813 15.2889 279.746 15.7333 279.035 16.5333C278.324 17.3333 277.968 18.6667 277.968 20.2667V23.5556H287.657V17.3333L294.146 15.3778V23.5556H300.724V28.8889H294.146V41.7778C294.146 43.4667 294.502 44.6222 295.035 45.3333C295.657 46.0445 296.635 46.4 297.968 46.4C298.324 46.4 298.768 46.3111 299.302 46.1333C299.835 45.9556 300.279 45.7778 300.635 45.5111V50.8445C300.191 51.1111 299.568 51.2889 298.591 51.4667C297.613 51.6445 296.724 51.7333 295.746 51.7333C292.991 51.7333 290.946 51.0222 289.613 49.6C288.279 48.1778 287.568 45.9556 287.568 43.0222L287.657 28.9778Z" fill="#1DCAD3"/>
<path d="M31.0348 0H0.634766V30.4H31.0348V0Z" fill="#1DCAD3"/>
<path d="M64.6344 0H34.2344V30.4H64.6344V0Z" fill="#1DCAD3"/>
<path d="M31.0348 33.6H0.634766V64H31.0348V33.6Z" fill="#1DCAD3"/>
<path d="M64.6344 33.6001H34.2344V64.0001H64.6344V33.6001Z" fill="#1DCAD3"/>
</svg>
