<svg width="122" height="64" viewBox="0 0 122 64" fill="none" xmlns="http://www.w3.org/2000/svg">
<path d="M39.7753 63.6244H34.4512V42.5251H39.7753V63.6244V63.6244Z" fill="#1DCAD3"/>
<path d="M82.7051 48.5707C82.4859 48.4594 80.7724 47.4442 78.2259 47.4442C74.7838 47.4442 72.3958 49.8389 72.3958 53.0718C72.3958 56.2069 74.681 58.7046 78.2259 58.7046C80.7286 58.7046 82.4707 57.7096 82.7051 57.5848V63.2479C82.0373 63.4334 80.2176 63.9984 77.8532 63.9984C71.8646 63.9984 66.6079 59.87 66.6079 53.0702C66.6079 46.7713 71.3637 42.1503 77.8532 42.1503C80.3491 42.1503 82.2009 42.7575 82.7051 42.9076V48.5707ZM27.1315 48.5707C26.9173 48.4594 25.2055 47.4442 22.659 47.4442C19.2102 47.4442 16.8239 49.8389 16.8239 53.0718C16.8239 56.2069 19.1107 58.7046 22.659 58.7046C25.1617 58.7046 26.9021 57.7096 27.1315 57.5848V63.2479C26.4704 63.4334 24.6524 63.9984 22.2745 63.9984C16.2909 63.9984 11.041 59.87 11.041 53.0702C11.041 46.7713 15.7968 42.1503 22.2762 42.1503C24.7822 42.1503 26.6306 42.7575 27.1315 42.9076V48.5707V48.5707ZM99.4533 47.5234C96.2945 47.5234 93.9487 50.0092 93.9487 53.0718C93.9487 56.1412 96.2945 58.6254 99.4533 58.6254C102.609 58.6254 104.961 56.1412 104.961 53.0718C104.961 50.0092 102.609 47.5234 99.4533 47.5234ZM110.602 53.0718C110.602 59.1076 105.943 63.9984 99.4549 63.9984C92.9638 63.9984 88.3109 59.1077 88.3109 53.0702C88.3109 47.0462 92.9655 42.1503 99.4533 42.1503C105.943 42.1503 110.602 47.0461 110.602 53.0718V53.0718ZM59.965 47.3211C59.8857 47.2958 57.6444 46.6768 55.8028 46.6768C53.6695 46.6768 52.5092 47.3919 52.5092 48.4055C52.5092 49.6905 54.0742 50.1391 54.9495 50.4156L56.4184 50.8829C59.8756 51.9824 61.4491 54.3485 61.4491 56.9186C61.4491 62.2191 56.7877 64 52.7132 64C49.8817 64 47.2289 63.4772 46.9675 63.4233V58.5663C47.4363 58.6843 49.6692 59.3522 51.9948 59.3522C54.6442 59.3522 55.8619 58.5765 55.8619 57.3824C55.8619 56.3132 54.8078 55.6959 53.4873 55.2811C53.1669 55.1731 52.6812 55.0213 52.3507 54.9134C49.3859 53.9757 46.9135 52.232 46.9135 48.741C46.9135 44.7947 49.8682 42.1453 54.7758 42.1453C57.3678 42.1453 59.8065 42.7744 59.965 42.8165V47.3193V47.3211Z" fill="#1DCAD3"/>
<path d="M5.39445 19.8504C5.39445 18.3967 4.20719 17.2178 2.75178 17.2178C1.29637 17.2178 0.107422 18.3966 0.107422 19.8486V25.3887C0.12484 26.0782 0.410999 26.7337 0.904856 27.2152C1.39871 27.6968 2.06118 27.9662 2.75094 27.9662C3.44071 27.9662 4.10316 27.6968 4.59702 27.2152C5.09087 26.7337 5.37703 26.0782 5.39445 25.3887V19.8504V19.8504ZM19.9131 12.5818C19.9131 11.8807 19.6346 11.2083 19.1388 10.7125C18.6431 10.2168 17.9707 9.93827 17.2696 9.93827C16.5685 9.93827 15.8961 10.2168 15.4004 10.7125C14.9046 11.2083 14.6261 11.8807 14.6261 12.5818V25.3887C14.6261 26.0898 14.9046 26.7622 15.4004 27.258C15.8961 27.7537 16.5685 28.0322 17.2696 28.0322C17.9707 28.0322 18.6431 27.7537 19.1388 27.258C19.6346 26.7622 19.9131 26.0898 19.9131 25.3887V12.58V12.5818ZM34.4335 2.63508C34.4335 1.18136 33.2462 0.000822938 31.7908 0.000822938C30.3337 0.000822938 29.1464 1.18136 29.1464 2.63508V30.6521C29.1639 31.3416 29.45 31.9971 29.9439 32.4786C30.4377 32.9601 31.1002 33.2297 31.7899 33.2297C32.4797 33.2297 33.1422 32.9601 33.636 32.4786C34.1299 31.9971 34.4161 31.3416 34.4335 30.6521V2.63508V2.63508ZM48.9521 12.5818C48.9521 11.8807 48.6736 11.2083 48.1779 10.7125C47.6821 10.2168 47.0097 9.93827 46.3086 9.93827C45.6075 9.93827 44.9351 10.2168 44.4394 10.7125C43.9436 11.2083 43.6651 11.8807 43.6651 12.5818V25.3887C43.6651 26.0898 43.9436 26.7622 44.4394 27.258C44.9351 27.7537 45.6075 28.0322 46.3086 28.0322C47.0097 28.0322 47.6821 27.7537 48.1779 27.258C48.6736 26.7622 48.9521 26.0898 48.9521 25.3887V12.58V12.5818ZM63.4556 19.8504C63.4561 19.1529 63.1795 18.4838 62.6868 17.9902C62.1941 17.4965 61.5256 17.2187 60.8281 17.2178C60.1292 17.2173 59.4585 17.4941 58.9632 17.9872C58.4678 18.4803 58.1881 19.1497 58.1855 19.8486V25.3887C58.1855 26.0876 58.4631 26.7578 58.9572 27.252C59.4514 27.7462 60.1217 28.0238 60.8205 28.0238C61.5194 28.0238 62.1896 27.7462 62.6838 27.252C63.178 26.7578 63.4556 26.0876 63.4556 25.3887V19.8504V19.8504ZM77.981 12.5818C77.9636 11.8945 77.6784 11.2411 77.1861 10.7611C76.6938 10.2811 76.0335 10.0125 75.346 10.0125C74.6584 10.0125 73.9981 10.2811 73.5058 10.7611C73.0135 11.2411 72.7283 11.8945 72.7109 12.5818V25.3887C72.7109 26.0876 72.9885 26.7578 73.4827 27.252C73.9768 27.7462 74.6471 28.0238 75.346 28.0238C76.0448 28.0238 76.715 27.7462 77.2092 27.252C77.7034 26.7578 77.981 26.0876 77.981 25.3887V12.58V12.5818ZM92.5098 2.63508C92.5098 1.93621 92.2322 1.26596 91.738 0.77179C91.2438 0.277616 90.5736 -5.24757e-07 89.8747 -5.24757e-07C89.1759 -5.24757e-07 88.5056 0.277616 88.0114 0.77179C87.5173 1.26596 87.2396 1.93621 87.2396 2.63508V30.6521C87.224 31.0078 87.2807 31.363 87.4061 31.6963C87.5315 32.0296 87.723 32.3341 87.9693 32.5913C88.2155 32.8486 88.5112 33.0533 88.8387 33.1932C89.1662 33.333 89.5186 33.4052 89.8747 33.4052C90.2308 33.4052 90.5832 33.333 90.9107 33.1932C91.2382 33.0533 91.534 32.8486 91.7802 32.5913C92.0264 32.3341 92.218 32.0296 92.3434 31.6963C92.4688 31.363 92.5254 31.0078 92.5098 30.6521V2.63508V2.63508ZM107.035 12.5818C107.035 11.1264 105.856 9.94414 104.367 9.94414C103.668 9.94458 102.998 10.2225 102.504 10.7168C102.01 11.211 101.733 11.8812 101.733 12.58V25.3887C101.733 26.8508 102.914 28.0296 104.367 28.0296C105.856 28.0296 107.035 26.8508 107.035 25.3887V12.58V12.5818ZM121.534 19.8504C121.534 19.1509 121.256 18.4799 120.761 17.9853C120.266 17.4906 119.596 17.2127 118.896 17.2127C118.196 17.2127 117.526 17.4906 117.031 17.9853C116.536 18.4799 116.258 19.1509 116.258 19.8504V25.3887C116.258 26.8508 117.441 28.0313 118.896 28.0313C120.35 28.0313 121.532 26.8508 121.532 25.3887V19.8504H121.534Z" fill="#1DCAD3"/>
<path d="M118.486 60.8447V61.1752H117.545V63.6222H117.157V61.177H116.213V60.8447H118.486V60.8447ZM118.684 60.8447H119.289L120.12 63.1231H120.134L120.938 60.8463H121.532V63.6222H121.136V61.3456H121.122L120.279 63.6222H119.913L119.09 61.3456H119.071V63.6222H118.684V60.8447V60.8447Z" fill="#1DCAD3"/>
</svg>
