<svg width="65" height="64" viewBox="0 0 65 64" fill="none" xmlns="http://www.w3.org/2000/svg">
<path d="M32.8046 64C32.4865 64 32.1698 63.9942 31.8537 63.985L38.3933 46.012H47.3933C48.973 46.012 50.7071 44.7977 51.2474 43.314L58.3425 23.8257C59.5032 20.6351 57.6757 18.0247 54.2806 18.0247H41.7948L31.3185 46.8122H31.3147L25.3756 63.1311C11.2853 59.7813 0.804688 47.1151 0.804688 32.0001C0.804688 17.3207 10.6893 4.95125 24.1651 1.18133L18.0369 18.0247H18.0352L7.84749 46.012L14.6294 46.0126L23.2932 22.2303H28.3901L19.7263 46.0126L26.5057 46.0138L34.5794 23.8257C35.7409 20.6351 33.9132 18.0247 30.5212 18.0247H24.8203L31.3664 0.0336296C31.8436 0.0124444 32.3225 0 32.8046 0C50.4778 0 64.8045 14.3268 64.8045 32.0001C64.8045 49.6729 50.4778 64 32.8046 64ZM52.1663 22.2133H47.0708L39.935 41.7922H45.0307L52.1663 22.2133Z" fill="#1DCAD3"/>
</svg>
