<svg xmlns="http://www.w3.org/2000/svg" viewBox="0 0 158.47 64"><defs><style>.cls-1{fill:#1dcad3;}</style></defs><title>Asset 1</title><g id="Layer_2" data-name="Layer 2"><g id="Layer_1-2" data-name="Layer 1"><path class="cls-1" d="M101.56,32.2c-2.4,0-4.31,1.65-4.57,4.77h9.08C105.89,33.78,104,32.2,101.56,32.2Z"/><path class="cls-1" d="M119.76,40.72c0,1.68,1.36,2.52,3.33,2.52s4.24-1.51,4.24-3.7V37.21l-3.53.58C120.67,38.29,119.76,39.23,119.76,40.72Z"/><path class="cls-1" d="M52.49,37.82a2.12,2.12,0,1,0,2.22,2.12A2.13,2.13,0,0,0,52.49,37.82Z"/><path class="cls-1" d="M0,0V64H158.47V0ZM53.41,24.47a1.07,1.07,0,0,1,2.13,0v4.89a1.07,1.07,0,0,1-2.13,0Zm-11.64,0a1.06,1.06,0,0,1,2.11,0v4.89a1.06,1.06,0,0,1-2.11,0Zm-23.31,0a1.06,1.06,0,0,1,2.12,0v4.89a1.06,1.06,0,0,1-2.12,0Zm-3.71,4.89a1.06,1.06,0,0,1-2.12,0V27.25a1.06,1.06,0,0,1,2.12,0Zm8.73,8.86a3.9,3.9,0,0,0-1.8-.43,2.16,2.16,0,1,0,0,4.3,3.86,3.86,0,0,0,1.8-.43v2.17a7.2,7.2,0,0,1-1.95.29,4.19,4.19,0,1,1,0-8.35,6.64,6.64,0,0,1,1.95.29Zm2.92-6.85a1.06,1.06,0,0,1-2.12,0V20.67a1.06,1.06,0,0,1,2.12,0ZM28.55,44H26.41V35.91h2.14Zm1.56-14.61V24.47a1.06,1.06,0,0,1,2.12,0v4.89a1.06,1.06,0,0,1-2.12,0Zm3.63,14.76a13.45,13.45,0,0,1-2.3-.22V42a8.09,8.09,0,0,0,2,.3c1.06,0,1.56-.29,1.56-.75s-.43-.64-1-.8l-.46-.14c-1.19-.36-2.18-1-2.18-2.36,0-1.51,1.19-2.52,3.16-2.52a9.44,9.44,0,0,1,2.08.25v1.72A7.75,7.75,0,0,0,35,37.5c-.85,0-1.32.27-1.32.66s.63.66,1,.77l.59.17a2.47,2.47,0,0,1,2,2.31C37.25,43.44,35.38,44.12,33.74,44.12Zm4.31-14.76a1.06,1.06,0,0,1-2.11,0V27.25a1.06,1.06,0,0,1,2.11,0Zm7.73,8.86a4,4,0,0,0-1.8-.43,2.16,2.16,0,1,0,0,4.3,4,4,0,0,0,1.8-.43v2.17a7.2,7.2,0,0,1-2,.29,4.19,4.19,0,1,1,0-8.35,6.78,6.78,0,0,1,2,.29Zm1.81-6.85V20.67a1.06,1.06,0,0,1,2.12,0v10.7a1.06,1.06,0,0,1-2.12,0Zm4.9,12.75A4.19,4.19,0,1,1,57,39.94,4.24,4.24,0,0,1,52.49,44.12Zm8.86-14.76a1.06,1.06,0,0,1-2.11,0V27.25a1.06,1.06,0,0,1,2.11,0ZM92.67,44H91.31V28.57L85.08,44H83.57L77,28.45V44H75.58V26.7h2.09l6.68,15.84,6.3-15.84h2Zm9.16-.74a3.91,3.91,0,0,0,4-2.67h1.43a5.27,5.27,0,0,1-5.44,3.77c-3.55,0-6.23-2.33-6.23-6.6s2.6-6.6,6-6.6,5.92,2.16,5.92,6.91H97C97.1,41.6,99.21,43.24,101.83,43.24ZM117,32.6a5.42,5.42,0,0,0-1.43-.21c-1.92,0-3.56,1.77-3.56,4.77V44h-1.36V31.5h1.11l.2,2.4a3.77,3.77,0,0,1,3.68-2.76,4.76,4.76,0,0,1,1.36.19ZM128.69,44h-1.11l-.2-2.06a5.23,5.23,0,0,1-4.64,2.42c-2.55,0-4.39-1.32-4.39-3.53s1.36-3.43,5-4l3.94-.62V35.1c0-1.8-1.34-2.9-3.58-2.9s-3.43,1-3.61,2.54h-1.41c.2-2.14,2.19-3.6,5.09-3.6s4.87,1.56,4.87,4.1Zm11.95,0-7.11-6.6V44h-1.36V26.7h1.36v9.89l6.28-5.09h1.84L134.92,37l7.56,7Zm5,0h-1.36V31.5h1.36Zm.16-15.51H144.2V26.7h1.64Z"/></g></g></svg>