<svg width="53" height="64" viewBox="0 0 53 64" fill="none" xmlns="http://www.w3.org/2000/svg">
<path d="M50.4434 21.8198C50.0722 22.1078 43.5179 25.801 43.5179 34.013C43.5179 43.5115 51.858 46.8719 52.1076 46.9551C52.0692 47.1599 50.7827 51.5572 47.7104 56.0376C44.9709 59.9804 42.1098 63.9168 37.7574 63.9168C33.4049 63.9168 32.2848 61.3885 27.2603 61.3885C22.3638 61.3885 20.6229 64 16.6417 64C12.6605 64 9.88259 60.3516 6.68867 55.8712C2.9891 50.6099 0 42.4362 0 34.6787C0 22.2358 8.09041 15.6368 16.0528 15.6368C20.2836 15.6368 23.8104 18.4146 26.4666 18.4146C28.9949 18.4146 32.9377 15.4703 37.751 15.4703C39.5752 15.4703 46.1294 15.6368 50.4434 21.8198ZM35.4659 10.2026C37.4565 7.84078 38.8647 4.56366 38.8647 1.28653C38.8647 0.832083 38.8263 0.371237 38.7431 0C35.5043 0.121612 31.6512 2.15702 29.3277 4.85168C27.5035 6.92549 25.801 10.2026 25.801 13.5246C25.801 14.0238 25.8842 14.5231 25.9226 14.6831C26.1274 14.7215 26.4602 14.7663 26.7931 14.7663C29.699 14.7663 33.3537 12.8205 35.4659 10.2026Z" fill="#1DCAD3"/>
</svg>
