<svg width="171" height="64" viewBox="0 0 171 64" fill="none" xmlns="http://www.w3.org/2000/svg">
<path d="M19.4366 63.9296C18.4773 63.6934 17.6259 62.9978 17.1317 62.0463L16.8578 61.5188L16.7991 54.7201L16.7405 47.9214L9.88326 47.8628L3.02598 47.8042L2.48527 47.4863C1.89971 47.1421 1.33477 46.5578 1.00615 45.9564C0.815535 45.6076 0.798828 45.0953 0.798828 39.5989V33.6208H15.92H31.0412V48.8006V63.9804L25.4147 63.9982C22.3201 64.0081 19.63 63.9772 19.4366 63.9296Z" fill="#1DCAD3"/>
<path d="M35.9666 47.3786C35.9328 47.2903 35.9189 44.2642 35.9356 40.6538L35.9661 34.0896L39.3068 34.0171C42.7562 33.9421 43.1298 33.8953 44.7382 33.3366C48.8041 31.9242 51.5259 27.5397 51.2213 22.8929C50.9076 18.1057 48.0849 14.6835 43.6182 13.6751C42.4905 13.4204 40.1212 13.4155 38.9969 13.6655C34.9519 14.5647 31.9296 17.4902 30.9147 21.4886C30.7668 22.0712 30.708 23.0162 30.6648 25.5034C30.6142 28.4194 30.5883 28.7567 30.4153 28.7614C29.3425 28.7906 17.3264 28.7347 17.2921 28.7004C17.1895 28.5979 17.2831 21.5917 17.3993 20.6681C18.375 12.9151 23.3228 6.01911 30.4272 2.51049C33.9562 0.767662 37.2071 0.0129868 41.2409 0.000163237C45.194 -0.0124039 48.5268 0.700314 51.7906 2.25617C58.382 5.39838 62.7832 11.1361 64.2125 18.4502C65.863 26.8961 63.3249 35.1708 57.3252 40.9041C53.8407 44.2339 49.7293 46.2999 44.8435 47.1764C43.7021 47.3811 42.835 47.433 39.7481 47.4811C36.6675 47.5292 36.0175 47.5116 35.9666 47.3786V47.3786Z" fill="#1DCAD3"/>
<path d="M86.8361 54.6677C86.7072 54.615 86.4962 54.4545 86.3672 54.3112C86.1366 54.0549 86.1328 53.8856 86.1328 43.9361V33.8216L86.7319 33.135C87.9971 31.685 90.2301 30.3409 92.2868 29.7911C93.1052 29.5724 93.5867 29.5248 94.9828 29.5244C96.9791 29.5239 97.669 29.675 99.2613 30.4613C103.166 32.3894 105.115 36.9208 103.959 41.3807C103.097 44.7069 100.336 47.1841 96.8043 47.8C96.1789 47.909 95.0648 47.9799 93.9752 47.9799C92.3181 47.9799 92.1683 47.9622 92.0565 47.7532C91.9897 47.6285 91.9351 46.9129 91.9351 46.163C91.9351 45.4131 91.9897 44.6976 92.0565 44.5729C92.168 44.3644 92.3174 44.3461 93.9107 44.3461C96.2893 44.3461 97.2424 44.0528 98.4086 42.962C100.552 40.9572 100.689 37.165 98.6971 35.0002C97.5434 33.7465 95.9409 33.2175 94.0142 33.4542C92.8947 33.5917 91.4558 34.2892 90.7808 35.0215L90.2941 35.5495V45.0234C90.2941 52.2356 90.2605 54.5308 90.1534 54.6379C89.9912 54.8001 87.2205 54.8251 86.8361 54.6677Z" fill="#1DCAD3"/>
<path d="M77.0736 47.8014C76.1146 47.5932 75.2369 47.1779 74.6201 46.6404C73.9647 46.0694 73.3358 44.7826 73.1838 43.7017C73.0578 42.8063 73.0148 26.7929 73.1375 26.4732C73.2298 26.2327 76.9004 24.3821 77.1189 24.4659C77.2463 24.5148 77.2855 25.0612 77.3106 27.14L77.3422 29.7527L79.8314 29.7843C82.7639 29.8216 82.4669 29.5828 82.4163 31.8626L82.3825 33.3865L79.8623 33.451C78.4762 33.4864 77.3262 33.526 77.3067 33.5389C77.2872 33.5518 77.2872 35.6854 77.3067 38.2803C77.3404 42.7677 77.3538 43.0184 77.5793 43.4087C77.7197 43.6516 78.0286 43.9265 78.3367 44.0827C78.8262 44.3308 79 44.3464 81.2703 44.3464C82.9911 44.3464 83.724 44.3868 83.8243 44.4871C83.9194 44.5822 83.965 45.1253 83.965 46.1633C83.965 47.2013 83.9194 47.7444 83.8243 47.8395C83.6168 48.047 78.0603 48.0157 77.0736 47.8014Z" fill="#1DCAD3"/>
<path d="M118.202 47.6767L117.842 47.3732V35.5112V23.6491L119.731 22.6791C120.771 22.1455 121.694 21.7369 121.783 21.771C121.919 21.8233 121.944 23.891 121.944 34.8355C121.944 46.5838 121.927 47.8447 121.759 47.909C121.657 47.9481 120.896 47.9801 120.068 47.9801C118.62 47.9801 118.549 47.9687 118.202 47.6767V47.6767Z" fill="#1DCAD3"/>
<path d="M126.435 47.8615C125.787 47.6006 125.808 47.9374 125.841 38.5339L125.871 29.8696H127.864H129.857L129.887 38.8295C129.91 45.9198 129.886 47.8088 129.769 47.8828C129.57 48.0093 126.757 47.9913 126.435 47.8615Z" fill="#1DCAD3"/>
<path d="M134.382 47.8164C133.784 47.4849 133.792 47.5822 133.787 40.3257C133.784 34.6818 133.811 33.4976 133.95 33.234C134.17 32.8179 135.453 31.5827 136.156 31.1118C137.023 30.5302 138.557 29.8378 139.585 29.5634C140.812 29.2362 143.068 29.2068 144.274 29.5023C147.355 30.257 149.755 32.639 150.544 35.7269C150.764 36.5855 150.78 37.0234 150.78 42.2425C150.78 47.2365 150.76 47.8453 150.594 47.9089C150.233 48.0477 146.966 47.9876 146.818 47.8393C146.713 47.7341 146.677 46.3782 146.677 42.4596C146.677 37.5729 146.662 37.1702 146.446 36.4707C145.846 34.5286 144.388 33.3635 142.405 33.2402C140.859 33.144 139.565 33.5851 138.457 34.5856L138.003 34.996V41.2613C138.003 45.3559 137.961 47.6051 137.882 47.7533C137.771 47.9602 137.625 47.9796 136.211 47.9759C135.152 47.973 134.574 47.9226 134.382 47.8164V47.8164Z" fill="#1DCAD3"/>
<path d="M155.035 47.8617C154.379 47.5975 154.409 48.2235 154.442 35.4281L154.471 23.6572L156.428 22.6637C157.504 22.1173 158.427 21.7129 158.479 21.765C158.531 21.8171 158.6 25.35 158.633 29.6158L158.691 37.3718L161.893 33.5915L165.095 29.8112H167.432C169.374 29.8112 169.768 29.8393 169.768 29.9779C169.768 30.0696 168.157 31.9744 166.187 34.2109C164.217 36.4473 162.622 38.3437 162.641 38.425C162.661 38.5064 164.464 40.5913 166.648 43.0583C168.833 45.5253 170.626 47.6287 170.634 47.7325C170.646 47.8995 170.372 47.9251 168.27 47.9531L165.893 47.9849L165.633 47.7001C165.49 47.5434 163.896 45.6203 162.091 43.4264C160.285 41.2325 158.769 39.4343 158.721 39.4303C158.672 39.4263 158.633 41.2464 158.633 43.4748C158.633 46.0436 158.588 47.6095 158.511 47.7533C158.4 47.9605 158.257 47.9794 156.841 47.9726C155.989 47.9685 155.176 47.9186 155.035 47.8617V47.8617Z" fill="#1DCAD3"/>
<path d="M108.903 40.7419C108.607 40.4093 107.045 37.0441 107.109 36.8769C107.156 36.7545 107.892 36.73 110.776 36.7548L114.383 36.7858L114.415 38.7698C114.44 40.2785 114.412 40.7765 114.298 40.8486C114.216 40.9008 113.01 40.9442 111.617 40.9452C109.353 40.9468 109.067 40.9254 108.903 40.7419Z" fill="#1DCAD3"/>
<path d="M125.731 25.6501C125.331 25.3702 125.072 24.536 125.131 23.7192C125.195 22.8417 125.62 22.1815 126.451 21.6672C126.95 21.3588 127.132 21.3133 127.854 21.3163C128.775 21.3202 129.378 21.5622 129.938 22.1519C130.802 23.0623 130.859 24.7073 130.058 25.6206C129.901 25.8005 129.639 25.8257 127.93 25.8257C126.389 25.8257 125.929 25.789 125.731 25.6501Z" fill="#1DCAD3"/>
</svg>
