<svg width="443" height="64" viewBox="0 0 443 64" fill="none" xmlns="http://www.w3.org/2000/svg">
<path d="M0.00585938 62.2162V1.85492H16.3896L43.9833 38.934V1.85492H60.3671V62.2162H43.9833L16.3896 24.868V62.2162H0.00585938Z" fill="#1DCAD3"/>
<path d="M79.7695 62.2163V1.85498H119.867V15.2207H96.1533V25.3527H119.004V38.503H96.1533V48.8506H119.867V62.2163H79.7695Z" fill="#1DCAD3"/>
<path d="M163.844 62.2163H147.029V15.2207H131.076V1.85498H179.796V15.2207H163.844V62.2163Z" fill="#1DCAD3"/>
<path d="M219.679 28.5864H252.015C252.015 51.721 239.85 64 220.09 64C200.965 64 186.609 52.3197 186.609 32.7266C186.609 12.5059 199.633 0 219.713 0C242.414 0 248.618 16.9017 248.618 16.9017L233.062 23.0917C233.062 23.0917 229.418 13.5643 219.174 13.5643C211.675 13.5643 203.726 19.225 203.726 32.4576C203.726 43.5369 210.834 51.1893 219.982 51.1893C228.164 51.1893 232.198 46.5149 232.829 40.6586H219.679V28.5864Z" fill="#1DCAD3"/>
<path d="M338.46 1.8606L316.363 62.2219H333.286L337.059 51.0119H358.94L362.712 62.2219H379.743L357.431 1.8606H338.46ZM347.945 17.4899L355.167 39.1553H340.885L347.945 17.4899Z" fill="#1DCAD3"/>
<path d="M389.768 1.8606V62.2219H406.151V38.9396H407.445L422.535 62.2219H442.799L423.775 37.4036C430.346 36.3694 437.545 31.3495 437.545 20.5619C437.545 9.96547 430.869 1.8606 414.613 1.8606H389.768ZM406.151 13.9329H410.463C418.949 13.9329 421.026 17.0281 421.026 21.478C421.026 26.8348 417.602 29.0232 410.463 29.0232H406.151V13.9329Z" fill="#1DCAD3"/>
<path d="M266.459 62.2163V1.85498H306.556V15.2207H282.843V25.3527H305.694V38.503H282.843V48.8506H306.556V62.2163H266.459Z" fill="#1DCAD3"/>
</svg>
