<svg width="65" height="53" viewBox="0 0 65 53" fill="none" xmlns="http://www.w3.org/2000/svg">
<path d="M15.5401 38.3086H5.46032C4.89229 38.3086 4.39245 38.6847 4.23644 39.2325L0.5 52.3088H20.4999L16.7638 39.2325C16.6082 38.6847 16.1084 38.3086 15.5403 38.3086H15.5401Z" fill="#1BB2B2"/>
<path d="M28.7636 23.2328C28.6077 22.6847 28.1078 22.3086 27.5397 22.3086H17.4599C16.8919 22.3086 16.3921 22.6847 16.2361 23.2325L12.5 36.3088H32.4999L28.7636 23.2328Z" fill="#1BB2B2"/>
<path d="M54.4997 36.3083L50.7636 23.232C50.6077 22.6843 50.1078 22.3081 49.5397 22.3081H39.4599C38.8919 22.3081 38.3921 22.6843 38.2361 23.232L34.5 36.3083H54.4997Z" fill="#1BB2B2"/>
<path d="M37.5398 38.3086H27.46C26.8919 38.3086 26.3921 38.6847 26.2361 39.2325L22.5 52.3088H42.4999L38.7638 39.2325C38.6078 38.6847 38.108 38.3086 37.5399 38.3086H37.5398Z" fill="#1BB2B2"/>
<path d="M60.764 39.2325C60.608 38.6847 60.1078 38.3086 59.5397 38.3086H49.4599C48.8919 38.3086 48.3921 38.6847 48.2361 39.2325L44.5 52.3088H64.4999L60.764 39.2325Z" fill="#1BB2B2"/>
<path d="M20.1564 15.1366L22.0524 11.3766L25.8124 9.48024L22.0524 7.58425L20.1564 3.82422L18.26 7.58425L14.5 9.48024L18.26 11.3766L20.1564 15.1366Z" fill="#FBFBFB"/>
<path d="M34.1559 18.3087L35.1063 16.4305L36.9841 15.4805L35.1063 14.5306L34.1559 12.6523L33.2081 14.5306L31.3281 15.4805L33.2081 16.4305L34.1559 18.3087Z" fill="#FBFBFB"/>
<path d="M42.9717 9.25401L44.4719 6.28003L47.4459 4.78018L44.4719 3.28032L42.9717 0.308105L41.4718 3.28032L38.5 4.78018L41.4718 6.28003L42.9717 9.25401Z" fill="#FBFBFB"/>
</svg>
