<svg width="64" height="52" viewBox="0 0 64 52" fill="none" xmlns="http://www.w3.org/2000/svg">
<path d="M15.0401 38.0004H4.96032C4.39229 38.0004 3.89245 38.3766 3.73644 38.9243L0 52.0006H19.9999L16.2638 38.9243C16.1082 38.3766 15.6084 38.0004 15.0403 38.0004H15.0401Z" fill="#1dcad3"/>
<path d="M28.2636 22.9248C28.1076 22.3768 27.6078 22.0006 27.0397 22.0006H16.9599C16.3919 22.0006 15.8921 22.3768 15.7361 22.9245L12 36.0008H31.9999L28.2636 22.9248Z" fill="#1dcad3"/>
<path d="M53.9997 36.0003L50.2636 22.9239C50.1076 22.3762 49.6078 22.0001 49.0397 22.0001H38.9599C38.3919 22.0001 37.8921 22.3762 37.7361 22.9239L34 36.0003H53.9997Z" fill="#1dcad3"/>
<path d="M37.0398 38.0004H26.96C26.3919 38.0004 25.8921 38.3766 25.7361 38.9243L22 52.0006H41.9999L38.2638 38.9243C38.1078 38.3766 37.608 38.0004 37.0399 38.0004H37.0398Z" fill="#1dcad3"/>
<path d="M60.264 38.9244C60.108 38.3766 59.6078 38.0005 59.0397 38.0005H48.9599C48.3919 38.0005 47.8921 38.3766 47.7361 38.9244L44 52.0007H63.9999L60.264 38.9244Z" fill="#1dcad3"/>
<path d="M19.6564 14.8285L21.5524 11.0685L25.3124 9.17213L21.5524 7.27614L19.6564 3.51611L17.76 7.27614L14 9.17213L17.76 11.0685L19.6564 14.8285Z" fill="#1D1934"/>
<path d="M33.6559 18.0006L34.6063 16.1223L36.4841 15.1724L34.6063 14.2224L33.6559 12.3442L32.7081 14.2224L30.8281 15.1724L32.7081 16.1223L33.6559 18.0006Z" fill="#1D1934"/>
<path d="M42.4717 8.9459L43.9719 5.97192L46.9459 4.47207L43.9719 2.97222L42.4717 0L40.9718 2.97222L38 4.47207L40.9718 5.97192L42.4717 8.9459Z" fill="#1D1934"/>
</svg>
