<svg width="64" height="64" viewBox="0 0 64 64" fill="none" xmlns="http://www.w3.org/2000/svg">
<path d="M7.11116 31.1112H14.2223C14.7114 31.1112 15.1112 31.511 15.1112 32.0001C15.1112 34.9426 17.1023 37.3335 19.5556 37.3335C22.009 37.3335 24.0001 34.9426 24.0001 32.0001C24.0001 31.511 24.3999 31.1112 24.889 31.1112H31.1112V26.6221C27.6093 26.2312 24.889 23.6087 24.889 20.4445C24.889 17.2798 27.6093 14.6578 31.1112 14.267V7.11115H24.827C24.3736 7.11115 24.0001 7.44895 23.9471 7.8934C23.6266 10.4891 21.7422 12.4445 19.5557 12.4445C17.3691 12.4445 15.4847 10.4892 15.1648 7.8934C15.1112 7.44895 14.7377 7.11115 14.2844 7.11115H8.00014C7.51105 7.11115 7.11125 7.51094 7.11125 8.00004V14.2223C3.19111 14.2223 0.00012207 17.0134 0.00012207 20.4445C0.00012207 23.8756 3.19111 26.6668 7.11125 26.6668L7.11116 31.1112Z" fill="#1D1934"/>
<path d="M26.6671 20.4445C26.6671 22.8978 29.058 24.889 32.0005 24.889C32.4896 24.889 32.8894 25.2888 32.8894 25.7778V31.1112H38.2674C38.6583 27.6092 41.2807 24.889 44.4449 24.889C47.6096 24.889 50.2316 27.6092 50.6225 31.1112H56.8894V8.00002C56.8894 7.51093 56.4896 7.11113 56.0005 7.11113H50.6672C50.6672 3.19099 47.8761 0 44.4449 0C41.0138 0 38.2227 3.19099 38.2227 7.11113H32.8894V15.1112C32.8894 15.6002 32.4896 16 32.0005 16C29.058 16 26.6671 17.9912 26.6671 20.4445Z" fill="#1dcad3"/>
<path d="M56.8889 37.3334V32.889H49.7777C49.2886 32.889 48.8888 32.4892 48.8888 32.0001C48.8888 29.0576 46.8977 26.6667 44.4444 26.6667C41.991 26.6667 39.9999 29.0576 39.9999 32.0001C39.9999 32.4892 39.6001 32.889 39.111 32.889H32.8888V37.3781C36.3908 37.769 39.111 40.3915 39.111 43.5557C39.111 46.7204 36.3908 49.3424 32.8888 49.7332V56.8891H39.173C39.6264 56.8891 39.9999 56.5513 40.053 56.1068C40.3734 53.5111 42.2578 51.5557 44.4443 51.5557C46.6309 51.5557 48.5153 53.511 48.8352 56.1068C48.8888 56.5513 49.2623 56.8891 49.7157 56.8891H55.9999C56.489 56.8891 56.8888 56.4893 56.8888 56.0002V49.7779C60.8089 49.7779 63.9999 46.9868 63.9999 43.5557C63.9999 40.1246 60.8089 37.3334 56.8888 37.3334H56.8889Z" fill="#1dcad3"/>
<path d="M37.3338 43.5557C37.3338 41.1023 34.9429 39.1112 32.0004 39.1112C31.5113 39.1112 31.1115 38.7114 31.1115 38.2223V32.889H25.7335C25.3426 36.391 22.7201 39.1112 19.5559 39.1112C16.3912 39.1112 13.7692 36.391 13.3784 32.889H7.11145V38.2843C7.11145 38.7377 7.44925 39.1112 7.8937 39.1643C10.4894 39.4758 12.4448 41.3691 12.4448 43.5556C12.4448 45.7422 10.4895 47.6355 7.8937 47.9465C7.44925 48.0001 7.11145 48.3736 7.11145 48.827V56.0001C7.11145 56.4892 7.51125 56.889 8.00034 56.889H13.3337C13.3337 60.8091 16.1248 64.0001 19.5559 64.0001C22.987 64.0001 25.7782 60.8091 25.7782 56.889H31.1115V48.8889C31.1115 48.3998 31.5113 48 32.0004 48C34.9429 48 37.3338 46.0089 37.3338 43.5556V43.5557Z" fill="#1dcad3"/>
</svg>
