<svg width="65" height="65" viewBox="0 0 65 65" fill="none" xmlns="http://www.w3.org/2000/svg">
<path d="M8.18093 8.17993V15.7543C30.8561 15.7543 49.2369 34.1415 49.2369 56.8167H56.8177C56.8177 29.9559 35.0417 8.17993 8.18093 8.17993ZM8.18093 23.3383V30.9191C22.4817 30.9191 34.0785 42.5127 34.0785 56.8199H41.6561C41.6561 38.3303 26.6673 23.3383 8.18093 23.3383ZM15.4417 42.2887C11.4289 42.2887 8.17773 45.5463 8.17773 49.5559C8.17773 53.5655 11.4289 56.8199 15.4417 56.8199C19.4545 56.8199 22.7025 53.5687 22.7025 49.5559C22.7025 45.5431 19.4545 42.2887 15.4417 42.2887Z" fill="#1DCAD3"/>
</svg>
