<svg width="65" height="65" viewBox="0 0 65 65" fill="none" xmlns="http://www.w3.org/2000/svg">
<g clip-path="url(#clip0_145_1543)">
<path d="M64.5 16.5001V12.6569C64.5 11.2425 63.3576 10.1001 61.9432 10.1001H3.0632C1.6456 10.1001 0.5 11.2425 0.5 12.6569V16.5001H6.9V22.9001H0.5V29.3001H6.9V35.7001H0.5V42.1001H6.9V48.5001H0.5V52.3369C0.5 53.7513 1.6456 54.9001 3.0632 54.9001H61.9432C63.3576 54.9001 64.5 53.7513 64.5 52.3369V48.5001H58.1V42.1001H64.5V35.7001H58.1V29.3001H64.5V22.9001H58.1V16.5001H64.5ZM26.1 42.1001V22.9001L42.1 32.5001L26.1 42.1001Z" fill="#1DCAD3"/>
</g>
<defs>
<clipPath id="clip0_145_1543">
<rect width="64" height="64" fill="white" transform="translate(0.5 0.5)"/>
</clipPath>
</defs>
</svg>
