<svg width="41" height="20" viewBox="0 0 41 20" fill="none" xmlns="http://www.w3.org/2000/svg">
<g clip-path="url(#clip0_15_275)">
<path fill-rule="evenodd" clip-rule="evenodd" d="M0.00195312 2C0.00195312 0.895431 0.897384 0 2.00195 0H38.002C39.1065 0 40.002 0.895431 40.002 2C40.002 3.10457 39.1065 4 38.002 4H2.00195C0.897384 4 0.00195312 3.10457 0.00195312 2Z" fill="#1dcad3"/>
<path fill-rule="evenodd" clip-rule="evenodd" d="M0.00195312 10C0.00195312 8.89543 0.897384 8 2.00195 8H38.002C39.1065 8 40.002 8.89543 40.002 10C40.002 11.1046 39.1065 12 38.002 12H2.00195C0.897384 12 0.00195312 11.1046 0.00195312 10Z" fill="#1dcad3"/>
<path fill-rule="evenodd" clip-rule="evenodd" d="M0.00195312 18C0.00195312 16.8954 0.897384 16 2.00195 16H38.002C39.1065 16 40.002 16.8954 40.002 18C40.002 19.1046 39.1065 20 38.002 20H2.00195C0.897384 20 0.00195312 19.1046 0.00195312 18Z" fill="#1dcad3"/>
</g>
<defs>
<clipPath id="clip0_15_275">
<rect width="40" height="20" fill="white" transform="translate(0.00195312)"/>
</clipPath>
</defs>
</svg>
