<svg width="256" height="256" viewBox="0 0 256 256" fill="none" xmlns="http://www.w3.org/2000/svg">
<path d="M179.2 256H0V204.8H179.2C182.562 204.8 185.891 204.138 188.997 202.851C192.103 201.565 194.925 199.679 197.302 197.302C199.679 194.925 201.565 192.103 202.851 188.997C204.138 185.891 204.8 182.562 204.8 179.2C204.8 175.838 204.138 172.509 202.851 169.403C201.565 166.297 199.679 163.475 197.302 161.098C194.925 158.721 192.103 156.835 188.997 155.549C185.891 154.262 182.562 153.6 179.2 153.6H76.8C56.4314 153.6 36.897 145.509 22.4942 131.106C8.09141 116.703 0 97.1686 0 76.8C0 56.4314 8.09141 36.897 22.4942 22.4942C36.897 8.09141 56.4314 0 76.8 0L256 0V51.2H76.8C70.0105 51.2 63.499 53.8971 58.6981 58.6981C53.8971 63.499 51.2 70.0105 51.2 76.8C51.2 83.5895 53.8971 90.101 58.6981 94.9019C63.499 99.7029 70.0105 102.4 76.8 102.4H179.2C199.569 102.4 219.103 110.491 233.506 124.894C247.909 139.297 256 158.831 256 179.2C256 199.569 247.909 219.103 233.506 233.506C219.103 247.909 199.569 256 179.2 256Z" fill="#1DCAD3"/>
</svg>
