<svg width="65" height="65" viewBox="0 0 65 65" fill="none" xmlns="http://www.w3.org/2000/svg">
<g clip-path="url(#clip0_145_1548)">
<path d="M64.5 36.7241C64.5 44.9929 57.6392 51.7001 49.1816 51.7001H12.0744C5.6808 51.7001 0.5 46.6313 0.5 40.3817C0.5 34.1385 5.6808 29.0697 12.0744 29.0697C12.5416 29.0697 12.996 29.1081 13.4472 29.1561C13.3288 28.3689 13.2648 27.5625 13.2648 26.7369C13.2648 17.5497 20.884 10.1001 30.2888 10.1001C37.9912 10.1001 44.4936 15.0985 46.596 21.9625C47.4376 21.8249 48.2984 21.7513 49.1848 21.7513C57.6392 21.7513 64.5 28.4489 64.5 36.7241Z" fill="#1DCAD3"/>
</g>
<defs>
<clipPath id="clip0_145_1548">
<rect width="64" height="64" fill="white" transform="translate(0.5 0.5)"/>
</clipPath>
</defs>
</svg>
