<svg width="65" height="65" viewBox="0 0 65 65" fill="none" xmlns="http://www.w3.org/2000/svg">
<path d="M31.4751 25.6207C30.2792 25.9207 29.5351 27.2113 29.8131 28.5019C32.1063 39.1488 32.6072 50.3082 31.2579 60.7738C31.09 62.0879 31.9384 63.3004 33.1545 63.4816C33.2587 63.4972 33.363 63.505 33.4643 63.505C34.5559 63.505 35.5085 62.6363 35.6649 61.4363C37.0866 50.3925 36.5625 38.6285 34.1447 27.4144C33.8668 26.1207 32.6709 25.3269 31.4751 25.6207ZM26.3211 39.1347C25.0992 39.2566 24.1987 40.4254 24.3116 41.7457C24.8531 48.041 24.7112 54.255 23.8889 60.2144C23.7093 61.5254 24.549 62.7472 25.7623 62.941C25.8723 62.9597 25.9823 62.9675 26.0923 62.9675C27.1753 62.9675 28.125 62.1113 28.29 60.9207C29.1616 54.5816 29.315 47.98 28.7417 41.3019C28.6288 39.9816 27.5054 38.9972 26.3211 39.1347ZM29.8073 17.8254C27.2998 18.455 25.1687 20.1019 23.8049 22.4613C22.4411 24.8238 22.0126 27.6129 22.5946 30.3129C22.8754 31.6238 23.1302 32.9363 23.3532 34.2472C23.5704 35.5519 24.7575 36.4129 25.9389 36.1754C27.1492 35.9363 27.9484 34.6847 27.7254 33.3816C27.4909 31.9988 27.2245 30.6144 26.9263 29.2269C26.6135 27.7738 26.8452 26.2738 27.5806 25.0019C28.3161 23.7285 29.4656 22.8394 30.812 22.5019C33.6033 21.8004 36.3859 23.6879 37.0316 26.691C39.4204 37.7675 40.0458 48.866 38.8905 59.68C38.7486 60.9972 39.6259 62.1879 40.8449 62.3394C40.9318 62.3504 41.0187 62.355 41.1026 62.355C42.2174 62.355 43.1787 61.4535 43.309 60.23C44.5222 48.8675 43.8678 37.2175 41.3632 25.605C40.1645 20.0285 34.9931 16.5379 29.8073 17.8254ZM22.0937 19.53C22.8581 18.4894 22.693 16.98 21.7288 16.1582C20.7617 15.3347 19.3661 15.5175 18.6075 16.5519C18.2166 17.0847 17.8517 17.6457 17.5159 18.2269C15.1039 22.405 14.3424 27.341 15.3761 32.1269C17.2755 40.9472 17.7185 50.0082 16.6588 58.3316C16.4909 59.6441 17.3421 60.855 18.5582 61.0363C18.6625 61.0504 18.7638 61.0582 18.8652 61.0582C19.9597 61.0582 20.9123 60.1879 21.0658 58.9847C22.1979 50.0879 21.7288 40.4254 19.7078 31.0394C18.9462 27.5035 19.508 23.855 21.2916 20.7644C21.5406 20.3332 21.807 19.9222 22.0937 19.53ZM48.851 41.5207C47.6262 41.5863 46.6794 42.7113 46.7402 44.0363C46.9429 48.4644 46.8792 52.9129 46.552 57.2566C46.4506 58.5785 47.3627 59.7363 48.5875 59.8441C48.6483 59.8488 48.7091 59.8519 48.7699 59.8519C49.9166 59.8519 50.8894 58.9019 50.9821 57.6472C51.3267 53.0957 51.3933 48.4363 51.1819 43.7988C51.1211 42.4738 50.0497 41.4863 48.851 41.5207ZM48.3096 38.2097C48.4022 38.2097 48.4949 38.2035 48.5875 38.191C49.8065 38.0285 50.6694 36.8285 50.5188 35.5144C50.07 31.6019 49.4156 27.6582 48.5817 23.7941C46.8126 15.555 39.7823 9.57379 31.866 9.57379C30.6151 9.57379 29.3643 9.72692 28.1424 10.03C27.1318 10.2832 26.1416 10.6347 25.1947 11.0769C24.0684 11.6035 23.5501 13.0175 24.0365 14.2332C24.5259 15.4504 25.8375 16.0113 26.961 15.4832C27.6617 15.155 28.4001 14.8941 29.1442 14.7066C30.0331 14.4863 30.9481 14.3738 31.866 14.3738C37.7352 14.3738 42.9413 18.791 44.2501 24.8816C45.0492 28.5847 45.6746 32.3613 46.1061 36.105C46.2451 37.3207 47.2035 38.2097 48.3096 38.2097ZM55.8031 21.9925C54.7926 17.28 52.5544 12.9519 49.3375 9.46911C48.4717 8.53161 47.0645 8.53454 46.1929 9.47204C45.3214 10.408 45.3214 11.947 46.1871 12.8845C48.8192 15.7345 50.6462 19.3078 51.4714 23.1484C53.5417 32.7593 54.4683 42.6204 54.2251 52.2642C54.1932 53.5892 55.1603 54.8999 56.388 54.8999H56.4488C57.6504 54.8999 58.6378 53.7001 58.6726 52.397C58.9245 42.3423 57.9603 32.0019 55.8031 21.9925ZM11.3484 41.6347C11.4556 41.6347 11.5656 41.6269 11.6756 41.6097C12.8889 41.4175 13.7285 40.1972 13.5519 38.8863C13.2826 36.9082 12.9265 34.8785 12.4893 32.8488C11.2761 27.2347 12.1679 21.4394 15.0026 16.5347C17.8286 11.6394 22.2587 8.22223 27.4648 6.91442C31.9615 5.79723 36.7478 6.45661 40.8826 8.70036C41.9742 9.30036 43.3148 8.81911 43.8678 7.63629C44.4209 6.45192 43.9779 5.00817 42.8805 4.41286C37.8278 1.66754 31.976 0.873795 26.463 2.23786C20.0958 3.83786 14.6841 8.01286 11.2268 13.9941C7.76381 19.991 6.6751 27.0738 8.1576 33.9363C8.56586 35.8363 8.89885 37.7347 9.15075 39.5832C9.3129 40.7769 10.2626 41.6347 11.3484 41.6347ZM12.0115 45.2999H11.9362C10.7085 45.2999 9.74723 46.0978 9.78777 47.4228C9.87463 50.1353 9.79935 52.4788 9.56481 55.0694C9.4432 56.3881 10.3379 57.5575 11.5598 57.6872C11.6322 57.695 11.7075 57.6954 11.7799 57.6954C12.9091 57.6954 13.8762 56.9357 13.9891 55.6967C14.2439 52.8967 14.3279 50.1836 14.2353 47.2586C14.1918 45.9618 13.2045 45.2999 12.0115 45.2999Z" fill="#1DCAD3"/>
</svg>
