<svg width="65" height="65" viewBox="0 0 65 65" fill="none" xmlns="http://www.w3.org/2000/svg">
<path d="M57.111 15.6199C55.5014 6.09351 46.807 -0.274491 37.6902 1.40871C28.5702 3.08871 20.871 10.4199 22.4806 19.9527C22.823 22.0039 23.7862 25.2135 24.9222 27.5207L8.36217 52.2343C7.75097 53.1463 7.40537 54.7911 7.58777 55.8855L8.65337 62.1927C8.83897 63.2871 9.84377 64.0231 10.8934 63.8375L15.7446 62.9383C16.7942 62.7495 18.1254 61.8247 18.7014 60.8935L25.2518 50.2983L25.3094 50.2279L29.7446 49.4087L37.3926 36.9959C39.9046 37.4407 43.511 37.2903 45.6422 36.8967C54.7558 35.2135 58.7206 25.1527 57.111 15.6199ZM49.031 20.5063C46.5222 24.2503 43.9622 21.6135 40.3814 18.9863C36.8006 16.3687 33.5494 14.7559 36.055 11.0119C38.5638 7.26791 43.4982 6.35591 47.0854 8.97991C50.6694 11.6007 51.5366 16.7623 49.031 20.5063Z" fill="#1DCAD3"/>
</svg>
