<svg width="65" height="65" viewBox="0 0 65 65" fill="none" xmlns="http://www.w3.org/2000/svg">
<path d="M32.4999 0.308895C27.8972 0.308895 24.1273 4.07877 24.1273 8.68149C24.1273 11.3351 25.4035 13.6923 27.3467 15.2336V28.307L9.74559 28.3066C9.27496 28.3079 8.81951 28.4754 8.46008 28.7794L1.20862 34.8507C0.759421 35.2311 0.5 35.7897 0.5 36.3786C0.5 36.9671 0.759421 37.5261 1.20862 37.9061L8.46008 43.9773C8.81952 44.2814 9.27497 44.4489 9.74559 44.4502H27.3467V62.3325C27.3489 62.863 27.5615 63.3711 27.9379 63.7445C28.3148 64.1182 28.8242 64.3272 29.3548 64.3249H35.6609C36.1887 64.3231 36.6941 64.1124 37.0675 63.7391C37.4408 63.3658 37.6515 62.8604 37.6533 62.3325V34.8186H55.2544C55.725 34.8173 56.1805 34.6498 56.5399 34.3462L63.7914 28.2785C64.2406 27.8985 64.5 27.3395 64.5 26.751C64.5 26.1621 64.2406 25.6035 63.7914 25.2231L56.5399 19.1518C56.1805 18.8478 55.725 18.6803 55.2544 18.679H37.6533V15.2328C39.597 13.6915 40.8726 11.3347 40.8726 8.6807C40.8726 4.07798 37.1028 0.308105 32.5 0.308105L32.4999 0.308895ZM32.4999 4.31367C34.9402 4.31367 36.8874 6.24125 36.8874 8.68149C36.8874 10.3488 35.9667 11.7678 34.6133 12.5103C34.3306 12.6684 34.0328 12.7827 33.7265 12.8738C33.6684 12.8903 33.6135 12.914 33.5546 12.9283C33.2117 13.0145 32.858 13.0681 32.4999 13.0689C32.1418 13.0685 31.7917 13.0145 31.4488 12.9283C31.3885 12.914 31.3323 12.8903 31.2729 12.8738C30.9759 12.7854 30.6844 12.6733 30.4093 12.522C29.0501 11.7821 28.1316 10.3559 28.1316 8.68145C28.1316 6.2412 30.0592 4.31367 32.4999 4.31367ZM31.3475 16.9527C31.7279 17.0063 32.1052 17.0697 32.4999 17.0697C32.8938 17.0697 33.2729 17.0063 33.6524 16.9527V60.32H31.351L31.3475 16.9527ZM37.6532 22.6801H54.5319L59.3923 26.7434L54.5319 30.8182H37.6532V22.6801ZM10.4685 32.311H27.3472V40.4456L10.4685 40.4451L5.61222 36.3703L10.4685 32.311Z" fill="#1BB2B2"/>
</svg>
