<svg width="65" height="65" viewBox="0 0 65 65" fill="none" xmlns="http://www.w3.org/2000/svg">
<path d="M58.8473 49.9885C58.9743 49.5737 59.3228 49.2645 59.7498 49.1885L64.0014 48.4798V43.5655L59.7498 42.8568C59.3228 42.7808 58.9743 42.4716 58.8473 42.0568C58.5809 41.188 58.2325 40.3461 57.807 39.5425C57.6008 39.1619 57.6274 38.6971 57.8758 38.3425L60.3901 34.8339L56.9043 31.3481L53.3957 33.8624C53.0411 34.1108 52.5763 34.1374 52.1957 33.9313C51.3921 33.5057 50.5502 33.1573 49.6814 32.891C49.2666 32.7639 48.9574 32.4154 48.8814 31.9884L48.1727 27.7368H43.2584L42.5497 31.9884C42.4737 32.4154 42.1645 32.7639 41.7497 32.891C40.8808 33.1573 40.0389 33.5057 39.2354 33.9313C38.8548 34.1374 38.39 34.1109 38.0354 33.8624L34.5268 31.3481L31.041 34.8339L33.5553 38.3425C33.8037 38.6971 33.8303 39.1619 33.6241 39.5425C33.2047 40.3619 32.8532 41.2145 32.5726 42.0911C32.4343 42.488 32.094 42.7798 31.6813 42.8569L27.4297 43.5656V48.4799L31.6813 49.1885C32.1083 49.2646 32.4568 49.5737 32.5838 49.9885C32.8502 50.8574 33.1986 51.6993 33.6241 52.5028C33.8303 52.8835 33.8037 53.3483 33.5553 53.7028L31.041 57.2115L34.5268 60.6973L38.0354 58.183C38.39 57.9345 38.8548 57.908 39.2354 58.1141C40.039 58.5396 40.8809 58.8881 41.7497 59.1544C42.1645 59.2815 42.4737 59.6299 42.5497 60.057L43.2584 64.3086H48.1727L48.8814 60.057C48.9574 59.6299 49.2666 59.2815 49.6814 59.1544C50.5503 58.8881 51.3921 58.5396 52.1957 58.1141C52.5763 57.908 53.0411 57.9345 53.3957 58.183L56.9043 60.6973L60.3901 57.2115L57.8758 53.7028C57.6274 53.3483 57.6008 52.8835 57.807 52.5028C58.2325 51.6993 58.5809 50.8574 58.8473 49.9885V49.9885ZM45.7154 56.3085C42.9873 56.3085 40.371 55.2248 38.4424 53.2958C36.5133 51.3671 35.4297 48.7508 35.4297 46.0227C35.4297 43.2946 36.5134 40.6783 38.4424 38.7497C40.371 36.8205 42.9873 35.737 45.7154 35.737C48.4436 35.737 51.0599 36.8206 52.9885 38.7497C54.9176 40.6783 56.0012 43.2946 56.0012 46.0227C55.9976 48.7498 54.9129 51.3641 52.9848 53.2921C51.0567 55.2201 48.4425 56.3048 45.7154 56.3085Z" fill="#FBFBFB"/>
<path d="M53.7149 46.023C53.7149 50.4414 50.1333 54.023 45.7149 54.023C41.2965 54.023 37.7148 50.4414 37.7148 46.023C37.7148 41.6046 41.2965 38.0229 45.7149 38.0229C50.1333 38.0229 53.7149 41.6046 53.7149 46.023Z" fill="#FBFBFB"/>
<path d="M33.5875 29.051C33.9814 28.6536 34.6059 28.6005 35.0615 28.9255L35.8385 29.4857V29.4852C37.0732 26.2051 36.7324 22.5392 34.914 19.5428C33.0956 16.5465 30.0013 14.5515 26.5216 14.1321C23.042 13.7122 19.5619 14.9147 17.0838 17.3933C14.6051 19.8715 13.4026 23.3515 13.8225 26.8312C14.2419 30.3108 16.2368 33.4052 19.2333 35.2236C22.2297 37.042 25.8956 37.3827 29.1757 36.1481L28.6154 35.371H28.616C28.2981 34.9134 28.3507 34.2945 28.7415 33.897L33.5875 29.051Z" fill="#1BB2B2"/>
<path d="M8.23991 32.4001C8.25114 32.4231 8.26287 32.4343 8.26287 32.4573C8.63073 33.3012 8.57155 34.2706 8.10317 35.0629L4.76589 40.6287L9.96584 45.8286L15.5199 42.4914C15.9602 42.2327 16.4607 42.0944 16.9714 42.0914C17.3724 42.0919 17.7688 42.1735 18.1372 42.3316C18.1602 42.3316 18.1714 42.3429 18.1944 42.3546C19.0413 42.697 19.6734 43.423 19.8969 44.3087L21.4627 50.5944H26.1944L26.1031 50.5832C25.5485 50.4929 25.1413 50.0133 25.1429 49.4516V42.5944C25.1413 42.0327 25.5485 41.5531 26.1031 41.4628L30.6403 40.7087H30.6398C30.8265 40.1633 31.0439 39.6291 31.2913 39.1087L30.5255 38.0459C26.5724 39.7455 22.0525 39.5 18.3065 37.3816C14.5611 35.2638 12.0208 31.5163 11.4402 27.253C10.8596 22.9892 12.305 18.6989 15.3479 15.6565C18.3903 12.6137 22.6806 11.1683 26.9444 11.7489C31.2077 12.3295 34.9551 14.8699 37.073 18.6152C39.1914 22.3612 39.4368 26.881 37.7373 30.8342L38.8 31.6C39.3199 31.3449 39.8541 31.1199 40.4 30.926L41.1541 26.4117C41.2444 25.8571 41.724 25.45 42.2858 25.4515H49.1429C49.7047 25.45 50.1843 25.8571 50.2746 26.4117L50.2858 26.5031V21.7714L44.0001 20.2056C43.1144 19.9821 42.3883 19.35 42.046 18.503C42.0347 18.4801 42.023 18.4689 42.023 18.4459C41.6551 17.602 41.7143 16.6326 42.1827 15.8403L45.52 10.2633L40.3317 5.0744L34.7659 8.41169C34.3255 8.67037 33.825 8.80864 33.3144 8.81169C32.9133 8.81118 32.5169 8.72955 32.1485 8.57139C32.1256 8.57139 32.1143 8.56017 32.0914 8.54843C31.2444 8.20609 30.6123 7.48006 30.3889 6.59434L28.8231 0.308594H21.4628L19.897 6.59434C19.6735 7.48005 19.0414 8.2061 18.1944 8.54843C18.1715 8.55966 18.1603 8.57139 18.1373 8.57139C17.2934 8.93925 16.324 8.88007 15.5317 8.41169L9.95414 5.0744L4.76581 10.2627L8.1031 15.8285C8.36178 16.2689 8.50004 16.7694 8.5031 17.28C8.50259 17.6811 8.42096 18.0775 8.2628 18.4459C8.2628 18.4688 8.25158 18.4801 8.23984 18.503C7.89749 19.35 7.17147 19.9821 6.28574 20.2055L0 21.7713V29.1316L6.28574 30.6974C7.17145 30.9209 7.89758 31.5532 8.23991 32.4001Z" fill="#1BB2B2"/>
</svg>
