<svg width="64" height="61" viewBox="0 0 64 61" fill="none" xmlns="http://www.w3.org/2000/svg">
<path d="M17.3993 35.576L13.1508 34.2274C13.0835 34.2274 13.0835 34.2274 13.0158 34.1602L9.98133 44.9499C9.98133 45.0172 9.98133 45.0849 9.91406 45.1522H14.7022L17.3993 35.576Z" fill="#1BB2B2"/>
<path d="M13.7557 32.2717L20.1618 34.2949L20.2291 40.566H24.8822L24.7472 32.5412C24.7472 31.5299 24.0727 30.6531 23.1286 30.3831L20.2969 29.5068L22.2522 22.426H22.3872L30.3443 19.7289C31.2883 19.3916 31.9628 18.3803 31.6928 17.4362C31.4233 16.2899 30.2765 15.683 29.1979 16.0198L22.05 18.4475C21.6454 18.5825 21.1732 18.6498 20.7014 18.717L15.6438 18.9866C14.6997 19.0538 13.9579 19.7284 13.8229 20.6051L13.2161 24.5836L12.1371 29.6412C11.9353 30.788 12.6093 31.9343 13.7556 32.2716L13.7557 32.2717Z" fill="#1BB2B2"/>
<path d="M52.5315 25.3262C52.4642 25.3934 52.3292 25.3934 52.2619 25.4612L48.1484 26.8097L48.553 28.2933C48.688 28.8328 49.0252 29.3046 49.497 29.5747L52.262 31.4628H60.0845C59.9495 31.1933 59.68 30.9233 59.41 30.721L52.8688 26.2029L52.5315 25.3262Z" fill="#FBFBFB"/>
<path d="M37.6967 17.0988L44.3051 14.5362L45.9237 20.4705L42.2146 21.6841C41.2706 22.0214 40.5961 22.8977 40.5961 23.8422L40.4611 31.4625H45.1142L45.1815 25.5958L51.5876 23.5726C52.6667 23.2354 53.3408 22.1563 53.2062 21.01L52.2626 14.806L51.993 11.4343C51.9258 10.4902 51.3862 9.68111 50.6445 9.20895C49.8354 8.73668 48.8913 8.60215 48.0145 8.93942L36.3485 13.4575C35.3372 13.8621 34.8649 14.9411 35.2694 15.9525C35.6062 16.9638 36.6853 17.5034 37.6966 17.0988L37.6967 17.0988Z" fill="#FBFBFB"/>
<path d="M62.5792 33.6205H38.7074C37.8983 33.6205 37.2239 34.295 37.2239 35.104V38.2063H29.064C28.255 38.2063 27.5805 38.8808 27.5805 39.6898V42.792L19.3535 42.7916C18.5444 42.7916 17.8699 43.4661 17.8699 44.2751V47.3774H9.71057C8.9015 47.3774 8.22701 48.0519 8.22701 48.8609V52.8394H1.48356C0.67449 52.8394 0 53.514 0 54.323V58.706C0 59.5151 0.674538 60.1224 1.41637 60.1224H62.5795C63.3885 60.1224 63.9958 59.4478 63.9958 58.706L63.9954 35.0365C64.0626 34.2274 63.3881 33.6201 62.579 33.6201L62.5792 33.6205Z" fill="#1BB2B2"/>
<path d="M49.2269 4.35393C49.2269 6.58879 47.4154 8.40025 45.1806 8.40025C42.9462 8.40025 41.1348 6.58879 41.1348 4.35393C41.1348 2.11956 42.9462 0.308105 45.1806 0.308105C47.4154 0.308105 49.2269 2.11956 49.2269 4.35393Z" fill="#FBFBFB"/>
<path d="M22.7938 13.5248C22.7938 15.7597 20.9823 17.5711 18.7475 17.5711C16.5131 17.5711 14.7012 15.7597 14.7012 13.5248C14.7012 11.2905 16.5131 9.47852 18.7475 9.47852C20.9823 9.47852 22.7938 11.2905 22.7938 13.5248Z" fill="#1BB2B2"/>
</svg>
