<svg width="65" height="45" viewBox="0 0 65 45" fill="none" xmlns="http://www.w3.org/2000/svg">
<path d="M64.4101 26.6098C64.3324 26.7658 64.1763 26.9996 63.8643 26.9996H62.0718C61.2144 26.9996 60.5131 27.701 60.5131 28.5583V35.1051C60.5131 36.6638 59.266 37.911 57.7073 37.911H52.7969C50.7706 37.911 49.0559 39.6257 49.0559 41.652V43.8343C49.0559 44.1458 48.7444 44.4579 48.4323 44.4579H37.3648C37.0533 44.4579 36.7412 44.2241 36.7412 43.8343C36.6635 41.3399 36.3514 39.3138 35.8061 37.3653C35.4163 36.1181 34.9487 34.9492 34.3251 33.7797C34.6366 33.2339 35.0264 32.7663 35.4162 32.2987C35.8061 31.7529 36.2736 31.2853 36.6634 30.7401C37.9106 29.2591 39.1578 27.7782 40.0146 25.9079C41.1834 23.3359 41.807 20.4522 41.807 17.6464C41.807 11.7231 39.235 6.42285 35.1819 2.7598C37.5979 1.43488 40.4815 0.655273 43.4434 0.655273C52.8744 0.655273 60.5123 8.29327 60.5123 17.7242V20.9977C60.5123 21.3875 60.6683 21.699 60.9021 22.0111L64.4093 26.0641C64.5658 26.2201 64.4884 26.5315 64.4101 26.6098ZM28.4018 30.8183C27.1546 29.3373 25.9074 27.8564 25.0506 25.9861C23.8817 23.4141 23.2581 20.5305 23.2581 17.7246C23.2581 11.8013 25.8301 6.5011 29.8833 2.83805C27.4673 1.51313 24.5837 0.733519 21.6218 0.733519C12.1907 0.733519 4.55288 8.37152 4.55288 17.8024V21.0759C4.55288 21.4657 4.39685 21.7773 4.16307 22.0893L0.655898 26.1423C0.422119 26.3761 0.499864 26.6882 0.578153 26.8437C0.655897 26.9997 0.811933 27.2335 1.124 27.2335H2.91649C3.77386 27.2335 4.47515 27.9348 4.47515 28.7921V35.339C4.47515 36.8977 5.72232 38.1448 7.281 38.1448H12.1914C14.2177 38.1448 15.9324 39.8595 15.9324 41.8858V44.0681C15.9324 44.3797 16.2439 44.6917 16.556 44.6917H27.5457C27.8572 44.6917 28.1693 44.458 28.1693 44.0681C28.247 41.5738 28.5591 39.5476 29.1044 37.5991C29.4159 36.3519 29.9617 35.1831 30.5854 34.0136C30.2738 33.4677 29.884 33.0002 29.4942 32.5326C29.2594 31.8318 28.7916 31.2858 28.4018 30.8183ZM38.6896 17.6463C38.6896 12.4243 36.2736 7.66992 32.5326 4.55259C28.7916 7.66992 26.3756 12.4244 26.3756 17.6463C26.3756 20.0623 26.9214 22.4784 27.9342 24.6606C28.6356 26.2193 29.7267 27.4665 30.8179 28.7914C31.2855 29.3373 31.753 29.8826 32.1428 30.4285C32.2988 30.5845 32.3766 30.8183 32.5326 30.9743C32.6887 30.8183 32.7664 30.5845 32.9224 30.4285C33.39 29.8826 33.7798 29.3373 34.2473 28.7914C35.3385 27.4665 36.4297 26.1416 37.131 24.6606C38.1444 22.4788 38.6896 20.0623 38.6896 17.6463Z" fill="#1D1934"/>
</svg>
