<svg width="114" height="111" viewBox="0 0 114 111" fill="none" xmlns="http://www.w3.org/2000/svg">
<path d="M11.9258 0.000244141V37.9935H0V0.000244141H11.9258Z" fill="#FBFBFB"/>
<path d="M20.3907 0H32.2084L25.8672 15.8455H18.0488L20.3907 0Z" fill="#FBFBFB"/>
<path d="M83.2995 0V37.9932H71.4458V19.0506L65.573 37.9932H55.3767L49.5039 19.0506V37.9932H37.5781V0H52.1701L60.5649 22.7959L68.7436 0H83.2995Z" fill="#FBFBFB"/>
<path d="M36.4618 82.7208H24.5361L11.9257 63.5981V82.7208H0V44.7275H11.9257L24.5361 64.1743V44.7275H36.4618V82.7208Z" fill="#FBFBFB"/>
<path d="M50.512 80.596C47.5216 78.9034 45.1436 76.5986 43.3782 73.6095C41.6128 70.6205 40.748 67.3073 40.748 63.562C40.748 59.8527 41.6128 56.5036 43.3782 53.5145C45.1436 50.5615 47.5216 48.2207 50.512 46.5641C53.5025 44.9075 56.7812 44.0792 60.3481 44.0792C63.915 44.0792 67.1937 44.9075 70.1841 46.5641C73.1385 48.2207 75.5165 50.5615 77.2459 53.5145C78.9753 56.4675 79.84 59.8167 79.84 63.562C79.84 67.2713 78.9753 70.6205 77.2459 73.6095C75.5165 76.5625 73.1385 78.9034 70.1481 80.596C67.1576 82.2885 63.879 83.1168 60.3481 83.1168C56.7812 83.1168 53.5025 82.2525 50.512 80.596ZM65.8246 69.7202C67.1216 68.2076 67.7702 66.1549 67.7702 63.562C67.7702 60.9691 67.1216 58.8804 65.8246 57.3679C64.5275 55.8553 62.726 55.0991 60.3481 55.0991C57.9341 55.0991 56.0966 55.8553 54.8356 57.3679C53.5385 58.8804 52.89 60.9691 52.89 63.562C52.89 66.1549 53.5385 68.1716 54.8356 69.7202C56.1326 71.2327 57.9701 71.989 60.3481 71.989C62.726 71.989 64.5635 71.2327 65.8246 69.7202Z" fill="#FBFBFB"/>
<path d="M114 44.7275V54.1628H103.912V82.7208H91.986V54.1628H82.0059V44.7275H114Z" fill="#FBFBFB"/>
<path d="M9.21986 91.2358V99.0897H7.38554V95.484L7.44588 93.0684H7.42175L5.45468 99.0897H3.77725L1.81018 93.0684H1.78605L1.84639 95.484V99.0897H0V91.2358H2.95663L4.21169 95.2341L4.6582 96.9001H4.68234L5.14092 95.246L6.38391 91.2358H9.21986Z" fill="#FBFBFB"/>
<path d="M10.151 99.0897L12.9507 91.2358H15.4367L18.2244 99.0897H16.0884L15.5453 97.3166H12.7938L12.2387 99.0897H10.151ZM13.8317 94.0323L13.2283 95.9243H15.1109L14.5316 94.0442L14.1816 92.8066H14.1575L13.8317 94.0323Z" fill="#FBFBFB"/>
<path d="M21.2264 91.2358V94.7225L24.0744 91.2358H26.3794L23.6761 94.425L26.5242 99.0897H24.1709L22.1918 95.722L21.2264 96.8763V99.0897H19.1507V91.2358H21.2264Z" fill="#FBFBFB"/>
<path d="M27.5181 99.0897V91.2358H33.721V92.8185H29.5937V94.4131H32.8762V95.9005H29.5937V97.507H33.8778V99.0897H27.5181Z" fill="#FBFBFB"/>
<path d="M45.0816 91.2358V92.8185H42.487V99.0897H40.4113V92.8185H37.8046V91.2358H45.0816Z" fill="#FBFBFB"/>
<path d="M48.3437 91.2358V94.3417H51.3849V91.2358H53.4605V99.0897H51.3849V95.9243H48.3437V99.0897H46.2681V91.2358H48.3437Z" fill="#FBFBFB"/>
<path d="M55.2247 99.0897V91.2358H61.4276V92.8185H57.3004V94.4131H60.5828V95.9005H57.3004V97.507H61.5845V99.0897H55.2247Z" fill="#FBFBFB"/>
<path d="M67.6114 99.0897L65.3185 91.2358H67.5269L68.8785 97.4356L70.3025 91.2358H72.1851L73.6453 97.4237L74.9728 91.2358H77.1088L74.8038 99.0897H72.5471L71.6058 95.2817L71.2438 93.3659H71.2196L70.8697 95.2817L69.9404 99.0897H67.6114Z" fill="#FBFBFB"/>
<path d="M81.5066 91.1168C82.3111 91.1168 83.003 91.2795 83.5822 91.6047C84.1695 91.922 84.6201 92.3822 84.9338 92.9851C85.2476 93.588 85.4045 94.3139 85.4045 95.1628C85.4045 96.0116 85.2476 96.7375 84.9338 97.3404C84.6201 97.9433 84.1695 98.4074 83.5822 98.7327C83.003 99.05 82.3111 99.2087 81.5066 99.2087C80.694 99.2087 79.9941 99.05 79.4068 98.7327C78.8275 98.4074 78.381 97.9433 78.0672 97.3404C77.7535 96.7375 77.5966 96.0116 77.5966 95.1628C77.5966 94.3139 77.7535 93.588 78.0672 92.9851C78.381 92.3822 78.8275 91.922 79.4068 91.6047C79.9941 91.2795 80.694 91.1168 81.5066 91.1168ZM81.5066 92.7233C80.9273 92.7233 80.4848 92.9296 80.1791 93.3421C79.8734 93.7467 79.7205 94.3536 79.7205 95.1628C79.7205 95.9719 79.8734 96.5828 80.1791 96.9953C80.4848 97.3999 80.9273 97.6022 81.5066 97.6022C82.0778 97.6022 82.5163 97.3999 82.822 96.9953C83.1277 96.5828 83.2805 95.9719 83.2805 95.1628C83.2805 94.3536 83.1277 93.7467 82.822 93.3421C82.5163 92.9296 82.0778 92.7233 81.5066 92.7233Z" fill="#FBFBFB"/>
<path d="M90.6336 91.2358C91.5829 91.2358 92.319 91.454 92.842 91.8903C93.373 92.3266 93.6385 92.9137 93.6385 93.6515C93.6385 94.2385 93.4977 94.7225 93.2161 95.1033C92.9426 95.4761 92.5483 95.7498 92.0334 95.9243L94.1091 99.0897H91.8162L90.1146 96.2218H88.8717V99.0897H86.8322V91.2358H90.6336ZM90.3439 94.7701C90.7462 94.7701 91.0479 94.6907 91.249 94.5321C91.4502 94.3734 91.5507 94.1195 91.5507 93.7705C91.5507 93.112 91.1485 92.7828 90.3439 92.7828H88.8717V94.7701H90.3439Z" fill="#FBFBFB"/>
<path d="M97.2281 97.507H101.223V99.0897H95.1524V91.2358H97.2281V97.507Z" fill="#FBFBFB"/>
<path d="M105.791 91.2358C107.038 91.2358 107.991 91.5769 108.651 92.2592C109.319 92.9415 109.653 93.9093 109.653 95.1628C109.653 96.4162 109.319 97.384 108.651 98.0663C107.991 98.7486 107.038 99.0897 105.791 99.0897H102.412V91.2358H105.791ZM105.586 97.5427C106.262 97.5427 106.752 97.3444 107.058 96.9477C107.372 96.5431 107.529 95.9481 107.529 95.1628C107.529 94.3774 107.372 93.7863 107.058 93.3897C106.752 92.9851 106.262 92.7828 105.586 92.7828H104.488V97.5427H105.586Z" fill="#FBFBFB"/>
<path d="M0 109.998V102.144H3.87379C4.85531 102.144 5.57938 102.326 6.04601 102.691C6.51263 103.056 6.74595 103.58 6.74595 104.262C6.74595 104.706 6.6132 105.091 6.34771 105.416C6.08221 105.742 5.67593 105.944 5.12885 106.023V106.035C5.74029 106.115 6.19485 106.325 6.49252 106.666C6.79824 106.999 6.9511 107.404 6.9511 107.88C6.9511 108.554 6.70572 109.078 6.21496 109.45C5.73224 109.815 5.01219 109.998 4.05481 109.998H0ZM2.00327 105.357H3.51175C4.25192 105.357 4.622 105.071 4.622 104.5C4.622 103.929 4.25192 103.643 3.51175 103.643H2.00327V105.357ZM2.00327 108.558H3.70484C4.45305 108.558 4.82715 108.264 4.82715 107.677C4.82715 107.106 4.45305 106.821 3.70484 106.821H2.00327V108.558Z" fill="#FBFBFB"/>
<path d="M8.24953 109.998V102.144H14.4524V103.727H10.3252V105.321H13.6077V106.809H10.3252V108.415H14.6093V109.998H8.24953Z" fill="#FBFBFB"/>
<path d="M22.5603 102.144V103.727H19.9657V109.998H17.8901V103.727H15.2834V102.144H22.5603Z" fill="#FBFBFB"/>
<path d="M30.4445 102.144V103.727H27.8499V109.998H25.7743V103.727H23.1676V102.144H30.4445Z" fill="#FBFBFB"/>
<path d="M31.6311 109.998V102.144H37.8339V103.727H33.7067V105.321H36.9892V106.809H33.7067V108.415H37.9908V109.998H31.6311Z" fill="#FBFBFB"/>
<path d="M43.0456 102.144C43.9949 102.144 44.7311 102.362 45.254 102.798C45.785 103.235 46.0505 103.822 46.0505 104.56C46.0505 105.147 45.9097 105.631 45.6281 106.011C45.3546 106.384 44.9603 106.658 44.4454 106.832L46.5211 109.998H44.2282L42.5266 107.13H41.2837V109.998H39.2442V102.144H43.0456ZM42.7559 105.678C43.1582 105.678 43.4599 105.599 43.661 105.44C43.8622 105.282 43.9627 105.028 43.9627 104.679C43.9627 104.02 43.5605 103.691 42.7559 103.691H41.2837V105.678H42.7559Z" fill="#FBFBFB"/>
<path d="M51.0174 109.998V102.144H54.8912C55.8728 102.144 56.5968 102.326 57.0635 102.691C57.5301 103.056 57.7634 103.58 57.7634 104.262C57.7634 104.706 57.6306 105.091 57.3652 105.416C57.0997 105.742 56.6934 105.944 56.1463 106.023V106.035C56.7577 106.115 57.2123 106.325 57.51 106.666C57.8157 106.999 57.9685 107.404 57.9685 107.88C57.9685 108.554 57.7232 109.078 57.2324 109.45C56.7497 109.815 56.0296 109.998 55.0723 109.998H51.0174ZM53.0207 105.357H54.5292C55.2694 105.357 55.6394 105.071 55.6394 104.5C55.6394 103.929 55.2694 103.643 54.5292 103.643H53.0207V105.357ZM53.0207 108.558H54.7223C55.4705 108.558 55.8446 108.264 55.8446 107.677C55.8446 107.106 55.4705 106.821 54.7223 106.821H53.0207V108.558Z" fill="#FBFBFB"/>
<path d="M66.0997 102.144L63.2878 107.13V109.998H61.2122V107.13L58.4003 102.144H60.5484L61.6707 104.298L62.2621 105.607L62.8655 104.298L63.9878 102.144H66.0997Z" fill="#FBFBFB"/>
<path d="M73.5825 102.144C74.8295 102.144 75.7829 102.485 76.4426 103.167C77.1103 103.85 77.4442 104.817 77.4442 106.071C77.4442 107.324 77.1103 108.292 76.4426 108.974C75.7829 109.657 74.8295 109.998 73.5825 109.998H70.2035V102.144H73.5825ZM73.3773 108.451C74.0531 108.451 74.5439 108.253 74.8496 107.856C75.1634 107.451 75.3203 106.856 75.3203 106.071C75.3203 105.286 75.1634 104.694 74.8496 104.298C74.5439 103.893 74.0531 103.691 73.3773 103.691H72.2792V108.451H73.3773Z" fill="#FBFBFB"/>
<path d="M78.8655 109.998V102.144H85.0684V103.727H80.9412V105.321H84.2236V106.809H80.9412V108.415H85.2253V109.998H78.8655Z" fill="#FBFBFB"/>
<path d="M89.5921 102.025C90.3323 102.025 90.984 102.14 91.5471 102.37C92.1184 102.592 92.6131 102.921 93.0315 103.358L92.0299 104.679C91.6839 104.322 91.3098 104.056 90.9075 103.881C90.5133 103.699 90.0628 103.608 89.5559 103.608C89.1134 103.608 88.7957 103.679 88.6026 103.822C88.4095 103.965 88.313 104.139 88.313 104.345C88.313 104.512 88.3894 104.655 88.5422 104.774C88.7031 104.885 88.9606 104.98 89.3146 105.059L90.6541 105.357C91.4506 105.539 92.0339 105.805 92.404 106.154C92.774 106.503 92.9591 106.967 92.9591 107.546C92.9591 108.102 92.8143 108.574 92.5246 108.963C92.235 109.343 91.8368 109.633 91.3299 109.831C90.8231 110.022 90.2438 110.117 89.5921 110.117C88.7876 110.117 88.0515 109.99 87.3837 109.736C86.716 109.474 86.185 109.133 85.7908 108.713L86.7924 107.344C87.0901 107.685 87.4923 107.971 87.9992 108.201C88.506 108.423 89.029 108.534 89.568 108.534C90.4047 108.534 90.8231 108.292 90.8231 107.808C90.8231 107.642 90.7587 107.503 90.63 107.392C90.5093 107.273 90.284 107.174 89.9542 107.094L88.4819 106.773C88.0314 106.678 87.6291 106.543 87.2751 106.368C86.9292 106.194 86.6556 105.964 86.4545 105.678C86.2534 105.385 86.1528 105.02 86.1528 104.583C86.1528 104.092 86.2896 103.655 86.5631 103.274C86.8366 102.886 87.2309 102.58 87.7458 102.358C88.2607 102.136 88.8761 102.025 89.5921 102.025Z" fill="#FBFBFB"/>
<path d="M96.3324 102.144V109.998H94.2568V102.144H96.3324Z" fill="#FBFBFB"/>
<path d="M101.393 110.117C100.685 110.117 100.054 109.962 99.4986 109.653C98.9515 109.343 98.5251 108.887 98.2194 108.284C97.9136 107.681 97.7608 106.948 97.7608 106.083C97.7608 105.242 97.9217 104.52 98.2435 103.917C98.5653 103.306 99.0239 102.838 99.6192 102.513C100.223 102.188 100.931 102.025 101.743 102.025C102.652 102.025 103.38 102.188 103.927 102.513C104.483 102.83 104.913 103.338 105.219 104.036L103.3 104.786C103.195 104.381 103.01 104.088 102.745 103.905C102.479 103.723 102.149 103.631 101.755 103.631C101.16 103.631 100.697 103.842 100.367 104.262C100.046 104.675 99.8847 105.278 99.8847 106.071C99.8847 106.912 100.05 107.539 100.38 107.951C100.709 108.356 101.204 108.558 101.864 108.558C102.322 108.558 102.705 108.451 103.01 108.237C103.316 108.022 103.469 107.693 103.469 107.249V107.13H101.647V105.761H105.231V109.998H103.819L103.734 109.034C103.509 109.383 103.199 109.653 102.805 109.843C102.419 110.026 101.948 110.117 101.393 110.117Z" fill="#FBFBFB"/>
<path d="M114 102.144V109.998H111.695L109.221 105.75L108.618 104.583H108.606L108.654 106.035V109.998H106.82V102.144H109.125L111.598 106.392L112.202 107.558H112.214L112.166 106.107V102.144H114Z" fill="#FBFBFB"/>
</svg>
