<svg width="157" height="64" viewBox="0 0 157 64" fill="none" xmlns="http://www.w3.org/2000/svg">
<path d="M66.2881 64H22.0977V48.7619H66.2881C67.5006 48.7619 68.6633 48.2803 69.5206 47.423C70.3779 46.5657 70.8596 45.4029 70.8596 44.1905C70.8596 42.9781 70.3779 41.8153 69.5206 40.958C68.6633 40.1007 67.5006 39.619 66.2881 39.619H41.9072C30.9843 39.619 22.0977 30.7324 22.0977 19.8095C22.0977 8.88667 30.9843 0 41.9072 0H86.0977V15.2381H41.9072C40.6948 15.2381 39.532 15.7197 38.6747 16.577C37.8174 17.4343 37.3358 18.5971 37.3358 19.8095C37.3358 21.0219 37.8174 22.1847 38.6747 23.042C39.532 23.8993 40.6948 24.381 41.9072 24.381H66.2881C77.211 24.381 86.0977 33.2676 86.0977 44.1905C86.0977 55.1133 77.211 64 66.2881 64Z" fill="#1DCAD3"/>
<path d="M107.431 24.381H92.1934V64H107.431V24.381Z" fill="#1DCAD3"/>
<path d="M136.521 39.619C147.378 39.5438 156.193 30.6867 156.193 19.8095C156.193 8.88667 147.307 0 136.384 0H92.1934V15.2381H136.384C137.596 15.2381 138.759 15.7197 139.616 16.577C140.474 17.4343 140.955 18.5971 140.955 19.8095C140.955 21.0219 140.474 22.1847 139.616 23.042C138.759 23.8993 137.596 24.381 136.384 24.381H111.866L131.675 64H148.711L136.521 39.619Z" fill="#1DCAD3"/>
<path d="M16.7639 8.38095C16.7639 3.75228 13.0116 0 8.38291 0C3.75423 0 0.00195312 3.75228 0.00195312 8.38095C0.00195312 13.0096 3.75423 16.7619 8.38291 16.7619C13.0116 16.7619 16.7639 13.0096 16.7639 8.38095Z" fill="#1DCAD3"/>
<path d="M16.0018 20.5714H0.763672V64H16.0018V20.5714Z" fill="#1DCAD3"/>
</svg>
