<svg width="64" height="64" viewBox="0 0 64 64" fill="none" xmlns="http://www.w3.org/2000/svg">
<g clip-path="url(#clip0_213_2328)">
<path d="M24.373 34.4809C25.8079 36.277 27.2693 38.5353 28.0341 39.8994C28.9654 41.6726 29.3516 42.87 30.0444 45.0146C30.4495 46.1893 30.8356 46.5454 31.6458 46.5454C32.5317 46.5454 32.9368 45.9468 33.2473 45.0146C33.8947 43.0026 34.3944 41.4718 35.1857 40.013C38.2372 34.2536 43.2119 30.1614 46.0135 24.5535C46.0135 24.5535 47.8572 21.1281 47.8572 16.3311C47.8572 11.86 46.04 8.75293 46.04 8.75293L24.3844 34.5188L24.373 34.4809Z" fill="#FBFBFB"/>
<path d="M17.0265 23.9473C18.7718 27.9259 22.0997 31.4119 24.3712 34.481L36.4105 20.1961C36.4105 20.1961 34.7106 22.4241 31.6402 22.4241C28.2177 22.4241 25.4313 19.696 25.4313 16.2479C25.4313 13.8759 26.8434 12.2314 26.8434 12.2314C17.9843 13.5501 18.4765 15.6985 17 23.9398L17.0265 23.9473Z" fill="#FBFBFB"/>
<path d="M36.5615 0.74707C40.5746 2.03915 43.9819 4.76352 46.0264 8.74208L36.4101 20.2231C36.4101 20.2231 37.8222 18.571 37.8222 16.2066C37.8222 12.6865 34.854 10.0304 31.6511 10.0304C28.611 10.0304 26.8809 12.2318 26.8809 12.2318C27.6191 10.5495 35.2478 1.31922 36.5729 0.750859L36.5615 0.74707Z" fill="#FBFBFB"/>
<path d="M19.2227 5.79733C21.6154 2.94792 25.8102 0 31.6027 0C34.4005 0 36.5244 0.742664 36.5244 0.742664L26.8703 12.2236C26.2191 11.8701 19.8663 6.9189 19.2227 5.78217V5.79733Z" fill="#FBFBFB"/>
<path d="M17.028 23.9471C17.028 23.9471 15.4492 20.8097 15.4492 16.2931C15.4492 12.0114 17.1226 8.26023 19.2352 5.83521L26.8828 12.2767L17.0393 23.9471H17.028Z" fill="#FBFBFB"/>
<path fill-rule="evenodd" clip-rule="evenodd" d="M32.0869 58.406L34.6825 57.3268C34.5383 56.9629 34.112 56.7119 33.6041 56.7119C32.9552 56.7087 32.0556 57.2829 32.0869 58.406ZM35.1339 59.4508L36.1244 60.1096C35.8047 60.5833 35.0367 61.399 33.7044 61.399C32.0556 61.399 30.8644 60.1221 30.8644 58.4939C30.8644 56.7652 32.065 55.5887 33.5634 55.5887C34.9395 55.6358 35.7953 56.5236 36.1809 57.766L32.2938 59.3723C32.5916 59.9559 33.0524 60.2539 33.7013 60.2539C34.3471 60.2539 34.7985 59.9339 35.1276 59.4508H35.1339ZM28.8268 61.2234H30.1027V52.6898H28.8268V61.2234ZM26.7454 58.5033C26.7454 57.4805 26.062 56.7307 25.1937 56.7307C24.316 56.7307 23.5762 57.4805 23.5762 58.5033C23.5762 59.5166 24.3128 60.2539 25.1937 60.2539C26.0651 60.2539 26.7454 59.5166 26.7454 58.5033ZM27.8676 55.7644V60.9724C27.8676 63.1183 26.6043 63.9999 25.1091 63.9999C23.7016 63.9999 22.8552 63.0524 22.5355 62.2838L23.6451 61.8226C23.8426 62.2963 24.3285 62.8579 25.1091 62.8579C26.5354 62.6957 26.6607 61.7724 26.6607 60.7339H26.6137C26.3285 61.0853 25.7768 61.3959 25.084 61.3959C23.6326 61.3959 22.3004 60.1316 22.3004 58.5001C22.3004 56.8593 23.6295 55.5824 25.084 55.5824C25.7768 55.5824 26.3285 55.8899 26.6137 56.2319H26.6576V55.7581C26.6576 55.755 27.8676 55.755 27.8676 55.755V55.7644ZM13.9495 58.4939C13.9495 57.4491 13.2034 56.7338 12.3414 56.7338C11.4762 56.7338 10.7333 57.4491 10.7333 58.4939C10.7333 59.5292 11.4793 60.2539 12.3414 60.2539C13.2034 60.2539 13.9495 59.5261 13.9495 58.4939ZM15.2034 58.4939C15.2034 60.1661 13.9181 61.399 12.3414 61.399C10.7646 61.399 9.47937 60.1661 9.47937 58.4939C9.47937 56.8091 10.7646 55.5887 12.3414 55.5887C13.9181 55.5887 15.2034 56.8091 15.2034 58.4939ZM20.3756 58.4939C20.3756 57.4491 19.6296 56.7338 18.7675 56.7338C17.9024 56.7338 17.1594 57.4491 17.1594 58.4939C17.1594 59.5292 17.9055 60.2539 18.7675 60.2539C19.6296 60.2539 20.3756 59.5261 20.3756 58.4939ZM21.6295 58.4939C21.6295 60.1661 20.3443 61.399 18.7675 61.399C17.1908 61.399 15.9055 60.1661 15.9055 58.4939C15.9055 56.8091 17.1908 55.5887 18.7675 55.5887C20.3443 55.5887 21.6295 56.8091 21.6295 58.4939ZM4.57668 61.399C2.09399 61.399 0 59.3723 0 56.8813C0 54.3934 2.09085 52.3635 4.57668 52.3635C5.95282 52.3635 6.93085 52.9031 7.66751 53.609L6.7992 54.4781C6.27256 53.9824 5.55785 53.5965 4.57668 53.5965C2.76168 53.5965 1.34793 55.0616 1.34793 56.8593C1.34793 58.6758 2.76795 60.1221 4.57668 60.1221C5.7522 60.1221 6.42303 59.6484 6.85249 59.2186C7.20357 58.8672 7.43554 58.359 7.52331 57.6656H4.57668V56.4326H8.71451C8.75839 56.6523 8.78033 56.9158 8.78033 57.2013C8.78033 58.1268 8.52642 59.2719 7.71453 60.0845C6.92458 60.9159 5.91207 61.3583 4.57982 61.3583" fill="#FBFBFB"/>
<path d="M39.1758 61.1578V53.5715H40.1547L42.7872 58.1921H42.8268L45.4593 53.5715H46.4382V61.1578H45.4596L45.4993 55.3854H45.4596L43.0917 59.5426H42.5229L40.155 55.3854H40.1153C40.1875 57.3054 40.155 59.2381 40.155 61.1578H39.1758ZM49.494 61.2902C48.9384 61.2902 48.4886 61.1313 48.1182 60.8136C47.7478 60.4958 47.5626 60.0721 47.5626 59.5555C47.5626 58.9862 47.7875 58.5493 48.2241 58.2315C48.6606 57.9138 49.203 57.7549 49.8379 57.7549C50.4068 57.7549 50.883 57.8608 51.2402 58.0727C51.2307 56.9715 50.4703 56.6693 49.8776 56.6693C49.3181 56.6959 48.8326 56.9301 48.6341 57.4239L47.7478 57.04C47.8669 56.7355 48.105 56.4439 48.4622 56.1794C48.8193 55.9149 49.2823 55.7822 49.8644 55.7822C50.5258 55.7822 51.0814 55.9808 51.518 56.3648C51.9545 56.7487 52.1794 57.3048 52.1794 58.0065V61.1442H51.2534V60.4293C50.8208 60.9721 50.2361 61.2779 49.494 61.2899V61.2902ZM51.2402 58.8806C50.67 58.4463 49.4808 58.392 48.9252 58.8409C48.4886 59.2645 48.4423 59.8325 48.8987 60.1648C50.002 60.8731 51.2798 59.7703 51.2402 58.8806ZM55.976 61.2902C55.5791 61.2902 55.2219 61.2107 54.9177 61.0386C54.6134 60.8665 54.3753 60.6547 54.2166 60.4031H54.1637L54.2033 61.1181V63.4085H53.2377V55.9282H54.1637V56.6431H54.2033C54.3621 56.3916 54.587 56.1797 54.9045 56.0076C55.2219 55.8355 55.5791 55.7561 55.9627 55.7561C56.6374 55.7561 57.2062 56.0208 57.6957 56.5504C58.1851 57.08 58.4229 57.742 58.4229 58.5231C58.4229 59.3043 58.1848 59.9662 57.6957 60.4958C57.2194 61.0254 56.6374 61.2902 55.976 61.2902ZM55.8172 60.3899C56.267 60.3899 56.6506 60.2178 56.9813 59.8736C57.312 59.5293 57.4708 59.0792 57.4708 58.5099C57.4708 57.9406 57.312 57.4904 56.9813 57.1462C56.6506 56.802 56.267 56.6299 55.8172 56.6299C55.3542 56.6299 54.9706 56.802 54.6531 57.133C54.3356 57.4772 54.1769 57.9273 54.1769 58.4966C54.1769 59.0659 54.3356 59.5293 54.6531 59.8603C54.9706 60.231 55.3542 60.3899 55.8172 60.3899ZM61.2674 61.2902C60.6853 61.2902 60.2091 61.1446 59.8387 60.8665C59.455 60.5885 59.1905 60.231 59.0053 59.8074L59.8784 59.4499C60.1562 60.0986 60.6192 60.4296 61.2806 60.4296C61.5848 60.4296 61.8362 60.3637 62.0214 60.231C62.2198 60.0986 62.3124 59.9265 62.3124 59.7014C62.3124 59.3572 62.0743 59.1321 61.5981 59.013L60.553 58.7614C60.2223 58.682 59.9048 58.5099 59.6138 58.2848C59.3228 58.0597 59.164 57.7287 59.164 57.3316C59.164 56.8682 59.3625 56.4975 59.7725 56.2194C60.1826 55.9282 60.6588 55.7958 61.2144 55.7958C61.6774 55.7958 62.0875 55.9017 62.4447 56.1135C62.8019 56.3254 63.0664 56.6166 63.2119 57.0138L62.3653 57.358C62.1801 56.8947 61.7833 56.6696 61.1748 56.6696C60.8837 56.6696 60.6456 56.7355 60.4475 56.8549C60.2494 56.9744 60.1565 57.133 60.1565 57.3448C60.1565 57.6361 60.3814 57.8479 60.8444 57.9538L61.8762 58.1921C62.3656 58.3113 62.7228 58.4966 62.9609 58.7747C63.199 59.0527 63.3049 59.3572 63.3049 59.7014C63.3049 60.1648 63.1197 60.562 62.736 60.8665C62.3656 61.1313 61.8762 61.2902 61.2677 61.2902H61.2674Z" fill="#FBFBFB"/>
</g>
<defs>
<clipPath id="clip0_213_2328">
<rect width="63.3052" height="64" fill="white"/>
</clipPath>
</defs>
</svg>
