<svg width="267" height="64" viewBox="0 0 267 64" fill="none" xmlns="http://www.w3.org/2000/svg">
<path d="M184.805 53.2349C173.363 53.2349 168.953 42.702 168.953 31.9979C168.953 21.2938 173.363 10.7678 184.805 10.7678C196.236 10.7678 200.657 21.2938 200.657 31.9979C200.657 42.702 196.236 53.2349 184.805 53.2349ZM184.805 0.000441695C166.787 0.000441695 156.383 13.5013 156.383 31.9979C156.383 50.5015 166.787 64 184.805 64C202.814 64 213.216 50.5015 213.216 31.9979C213.216 13.5013 202.814 0.000441695 184.805 0.000441695Z" fill="#1DCAD3"/>
<path d="M0.804688 1.79523H45.9537V12.565H13.3631V25.9603H43.7547V36.4581H13.3631V51.4406H45.9537V62.2057H0.804688V1.79523Z" fill="#1DCAD3"/>
<path d="M75.2615 33.3176H63.8917V12.5634V12.5517H75.2615C83.1642 12.5517 88.4201 15.9908 88.4201 22.937C88.4201 29.8808 83.1642 33.3176 75.2615 33.3176ZM51.3379 62.2041H63.8917V44.0779H75.2615C90.6496 44.0779 100.976 36.5199 100.976 22.937C100.976 9.35172 90.6496 1.79602 75.2615 1.79602H51.3379V62.2041Z" fill="#1DCAD3"/>
<path d="M230.855 1.79514H217.961V62.2056H230.273V37.7357C230.273 31.038 230.034 25.0975 229.807 19.8439C231.258 22.8681 235.667 31.9546 237.7 35.3679L253.726 62.2056H266.619V1.79514H254.307V25.6531C254.307 32.3438 254.553 38.9078 254.774 44.1497C253.322 41.1256 248.925 32.0437 246.862 28.6351L230.855 1.79514Z" fill="#1DCAD3"/>
<path d="M115.239 42.2187C115.239 50.337 121.993 53.4924 129.175 53.4924C133.864 53.4924 141.478 52.1328 141.478 45.8969C141.478 39.3117 132.176 38.0669 123.2 35.6781C113.787 33.1861 104.722 29.6555 104.722 18.4615C104.722 5.98274 116.526 6.64402e-05 127.551 6.64402e-05C140.28 6.64402e-05 151.988 5.55607 151.988 19.6547H139.427C139 12.3077 133.36 10.4229 126.951 10.4229C122.675 10.4229 117.29 12.2186 117.29 17.3526C117.29 22.0506 120.363 22.775 135.65 26.7111C140.1 27.8223 154.042 30.5136 154.042 44.352C154.042 55.5531 145.239 63.9199 128.65 63.9199C115.157 63.9199 102.509 57.2597 102.675 42.2187H115.239Z" fill="#1DCAD3"/>
</svg>
