<svg width="85" height="64" viewBox="0 0 85 64" fill="none" xmlns="http://www.w3.org/2000/svg">
<path d="M43.1536 30.7557C40.4143 30.6312 38.3067 29.9361 36.6738 28.9302C37.7796 33.7296 41.9147 36.0869 42.1145 36.1987L43.3336 36.8708C52.6613 36.2478 58.121 30.2262 58.121 22.3521V20.6456C55.904 27.8792 50.7439 31.0973 43.1536 30.7557Z" fill="#1DCAD3"/>
<path d="M57.3253 20.4022L58.1211 17.8055V0.0211607C48.8202 0.0211607 47.8516 3.58802 47.8516 6.99319V26.5238C47.8516 27.5352 47.7533 28.6084 47.5488 29.6594C52.4806 28.7614 55.698 25.7129 57.3253 20.4014" fill="#1DCAD3"/>
<path d="M31.4508 6.13279H29.4219V4.10205H31.4508V6.13279Z" fill="#1DCAD3"/>
<path d="M33.5176 4.08208H31.4623V2.05213H33.5176V4.08208ZM35.5705 7.14958H33.5176V5.11805H35.5705V7.14958ZM33.5057 9.70425H31.4742V7.67351H33.5057V9.70425ZM31.452 12.7496H29.4213V10.7188H31.452V12.7496ZM27.3557 2.05213H25.3027V-1.02228e-07H27.3557V2.05213Z" fill="#1DCAD3"/>
<path d="M29.411 14.7786H31.4615V19.3021H33.5176V11.7341H35.5705V26.5246C35.5705 33.5426 41.7135 36.928 41.7135 36.928C31.3949 36.928 25.3027 30.6741 25.3027 22.3514V5.61571H27.3557V16.8093H29.411V14.7786Z" fill="#1DCAD3"/>
<path d="M53.3808 55.7112C51.6116 55.7112 50.2317 55.2214 49.2805 54.2528C48.3079 53.2651 47.8284 51.8344 47.8569 49.9995L47.8561 41.4342H47.8744C48.3484 41.4342 49.898 41.5468 49.898 42.9957L49.8987 50.4497C49.9526 52.6627 51.2217 53.9294 53.3808 53.9294C55.5392 53.9294 56.8082 52.6611 56.8613 50.4481V42.9957C56.8613 41.5468 58.4117 41.4342 58.8872 41.4342H58.9047L58.9023 50.001C58.9324 51.8344 58.4537 53.2651 57.4803 54.2535C56.5276 55.2206 55.1484 55.7112 53.3808 55.7112ZM6.24746 55.7112C4.4775 55.7112 3.09831 55.2214 2.14715 54.2528C1.17379 53.2651 0.695829 51.8344 0.725949 49.9995L0.753691 41.4342H0.771129C1.24592 41.4342 2.79552 41.5468 2.79552 42.9957L2.76699 50.4497C2.82009 52.6627 4.08831 53.9294 6.24666 53.9294C8.40739 53.9294 9.67561 52.6611 9.72872 50.4481L9.75884 42.9957C9.75884 41.5468 11.3092 41.4342 11.784 41.4342H11.8015L11.7698 50.001C11.7999 51.8344 11.3203 53.2651 10.3478 54.2535C9.39581 55.2206 8.01504 55.7112 6.24746 55.7112V55.7112ZM38.8874 53.9294C35.4197 53.9294 34.9021 50.5908 34.9021 48.5997C34.9021 46.9969 35.2889 43.2073 38.8874 43.2073C42.3544 43.2073 42.8728 46.6093 42.8728 48.5997C42.8728 50.2024 42.4836 53.9301 38.8874 53.9301V53.9294ZM46.7179 55.4314C46.7179 55.2158 46.6846 54.4953 46.274 54.0617C46.0553 53.8334 45.7644 53.7177 45.4013 53.7177H43.0155C44.2996 52.4654 45.0082 50.6573 45.0082 48.5997C45.0082 45.1628 43.3991 41.4279 38.8874 41.4279C34.375 41.4279 32.7675 45.1628 32.7675 48.5997C32.7675 52.0357 34.3734 55.708 38.8787 55.7112L38.8914 55.7096C39.2378 55.6938 39.5968 55.6565 39.9615 55.5987C40.1794 55.5741 40.4125 55.5329 40.6368 55.494L40.9927 55.4306L46.7179 55.4314ZM62.3804 55.5773L62.3788 42.9965C62.3788 41.546 63.9284 41.4342 64.4032 41.4342H64.4214V55.345C64.4214 55.4065 64.3971 55.4654 64.3537 55.5089C64.3103 55.5525 64.2514 55.577 64.19 55.5773H62.3804ZM28.0529 55.6256L28.0505 42.9957C28.0505 41.5468 29.6009 41.4342 30.0757 41.4342H30.0939V55.3926C30.0939 55.454 30.0696 55.513 30.0262 55.5565C29.9828 55.6 29.9239 55.6246 29.8625 55.6248L28.0529 55.6256ZM78.6025 55.5773V42.9616C78.6025 41.5111 80.1473 41.3993 80.6229 41.3993H80.6412V55.345C80.6412 55.4065 80.6168 55.4654 80.5734 55.5089C80.53 55.5525 80.4712 55.577 80.4097 55.5773H78.6025ZM66.4308 41.4691V43.2493H70.6056V55.578H72.4144C72.5396 55.578 72.6435 55.475 72.6466 55.3513V43.2493H76.4497C76.5741 43.2493 76.678 43.1463 76.6796 43.0234V41.4691H66.4308Z" fill="#1DCAD3"/>
<path d="M66.4634 41.469V43.2493H70.639V55.578H72.4486C72.5739 55.578 72.6769 55.4749 72.6785 55.3513V43.2493H76.4832C76.6084 43.2493 76.7122 43.1462 76.7146 43.0234V41.469H66.4634ZM20.6649 53.7906H17.4151V49.1655H20.4485C21.4005 49.1655 22.9968 49.5579 22.9968 51.4816C22.9968 53.2658 21.6232 53.7454 20.6641 53.7913L20.6649 53.7906ZM22.4475 45.3339C22.4475 46.0829 22.2177 46.7004 21.7445 47.0048C21.4084 47.2243 20.9391 47.344 20.2908 47.3805H17.2764V43.2786H20.175C21.8031 43.342 22.4467 44.0078 22.4467 45.3331L22.4475 45.3339ZM22.6829 48.2738L22.5086 48.2207L22.6758 48.1478C23.8505 47.6373 24.5813 46.4452 24.5813 45.2023C24.5813 42.9148 22.962 41.4991 20.141 41.4991H15.2353V55.5764H20.1402C20.2773 55.5787 20.4144 55.5803 20.5539 55.5803C21.1191 55.5803 21.8507 55.5486 22.488 55.3085C24.0336 54.7393 24.9927 53.3522 24.9927 51.8541C24.9927 50.5661 24.3879 48.7787 22.6837 48.2722L22.6829 48.2738ZM1.00195 59.8154H1.75654L3.6232 62.8274H3.6343V59.8154H4.31597V63.903H3.55979L1.69947 60.8973H1.68204V63.903H1.00195V59.8154ZM12.0045 59.8154H14.9476V60.4337H12.7203V61.5045H14.7811V62.0879H12.7203V63.284H14.9872V63.903H12.0045V59.8154ZM22.1408 59.8154H25.4508V60.4337H24.1509V63.903H23.4352V60.4337H22.1408V59.8154ZM32.5425 59.8154H33.2694L34.0081 62.9416H34.0192L34.8436 59.8154H35.576L36.3781 62.9416H36.3892L37.1501 59.8154H37.8786L36.7507 63.903H36.023L35.2042 60.7769H35.1931L34.3561 63.903H33.619L32.5425 59.8154ZM46.8298 60.3021C46.6341 60.2969 46.4403 60.3422 46.2671 60.4337C46.112 60.5186 45.9795 60.6393 45.8802 60.7856C45.7786 60.9388 45.7043 61.1086 45.6607 61.2873C45.5646 61.6625 45.5646 62.0559 45.6607 62.4311C45.7075 62.619 45.782 62.7854 45.8802 62.9328C45.9801 63.0795 46.1093 63.1976 46.2671 63.2848C46.4403 63.3762 46.6341 63.4215 46.8298 63.4163C47.0494 63.4163 47.2357 63.3728 47.3942 63.2848C47.5527 63.1976 47.6811 63.0795 47.7818 62.9328C47.8801 62.7854 47.9538 62.619 48.0005 62.4311C48.0497 62.2448 48.0735 62.0546 48.0735 61.8588C48.0735 61.6646 48.0497 61.4736 48.0005 61.2881C47.9573 61.1092 47.8833 60.9391 47.7818 60.7856C47.682 60.6391 47.5489 60.5185 47.3934 60.4337C47.2349 60.3465 47.0494 60.3021 46.8306 60.3021H46.8298ZM46.8306 59.7171C47.1358 59.7171 47.4092 59.775 47.6518 59.8899C47.8875 59.9992 48.0974 60.1573 48.2677 60.3536C48.4357 60.5478 48.5649 60.7753 48.6537 61.0353C48.7449 61.3005 48.7904 61.5792 48.7884 61.8596C48.7884 62.1529 48.744 62.4303 48.6537 62.6895C48.5703 62.9395 48.4392 63.171 48.2677 63.3712C48.0977 63.5667 47.8876 63.7235 47.6518 63.8309C47.3938 63.9468 47.1134 64.0045 46.8306 63.9997C46.5255 63.9997 46.252 63.9442 46.0087 63.8309C45.7732 63.7233 45.5635 63.5665 45.3936 63.3712C45.2271 63.1754 45.0971 62.9495 45.0076 62.6895C44.918 62.4295 44.8728 62.1529 44.8728 61.8588C44.8728 61.5687 44.918 61.2937 45.0076 61.0345C45.0971 60.7753 45.2271 60.5478 45.3936 60.3536C45.5714 60.1482 45.7924 59.9846 46.0409 59.8746C46.2893 59.7645 46.559 59.7108 46.8306 59.7171V59.7171ZM56.9914 61.6765H58.1653C58.3952 61.6765 58.5672 61.6226 58.6869 61.5132C58.8042 61.4046 58.8636 61.2414 58.8636 61.0242C58.8677 60.9153 58.8482 60.8069 58.8066 60.7063C58.7724 60.6292 58.7179 60.5629 58.6488 60.5145C58.5801 60.4674 58.5019 60.436 58.4198 60.4226C58.3318 60.4071 58.2427 60.3996 58.1534 60.4004H56.9914V61.6765ZM56.2749 59.8154H58.2279C58.6782 59.8154 59.0158 59.9129 59.2425 60.1079C59.466 60.3029 59.5786 60.5739 59.5786 60.9203C59.584 61.0857 59.5549 61.2504 59.493 61.4038C59.4452 61.5179 59.3776 61.6225 59.2932 61.713C59.2288 61.7828 59.1519 61.84 59.0665 61.8818C59.0134 61.9079 58.9589 61.9312 58.9033 61.9516V61.9627C58.9717 61.9721 59.0384 61.9913 59.1014 62.0197C59.177 62.0539 59.2445 62.1036 59.2996 62.1656C59.359 62.2329 59.4106 62.3193 59.4502 62.4263C59.4906 62.5326 59.5104 62.6665 59.5104 62.8274C59.5104 63.0676 59.5279 63.2864 59.5659 63.4821C59.6008 63.6795 59.6579 63.8198 59.7339 63.9022H58.9659C58.9123 63.814 58.8802 63.7143 58.8724 63.6113C58.8626 63.5086 58.8579 63.4054 58.8581 63.3022C58.8581 63.1151 58.8462 62.9534 58.8232 62.8187C58.806 62.6981 58.763 62.5827 58.6972 62.4802C58.6361 62.3906 58.5489 62.322 58.4475 62.2837C58.3184 62.2375 58.1819 62.216 58.0448 62.2203H56.9914V63.903H56.2749V59.8154ZM67.1681 59.8154H67.883V61.6757L69.7045 59.8154H70.5859L68.9531 61.4466L70.7001 63.903H69.8068L68.4672 61.9508L67.883 62.5286V63.903H67.1681V59.8154ZM78.2737 62.5405C78.2737 62.6974 78.3007 62.8314 78.353 62.9416C78.4042 63.0493 78.4812 63.1427 78.5773 63.2134C78.6724 63.2848 78.7826 63.3363 78.907 63.368C79.0307 63.3997 79.1654 63.4171 79.3097 63.4171C79.4674 63.4171 79.5998 63.3981 79.7108 63.3617C79.8217 63.3252 79.9113 63.2784 79.9803 63.2214C80.045 63.169 80.0961 63.1019 80.1293 63.0256C80.1594 62.9503 80.1745 62.875 80.1745 62.7981C80.1745 62.6411 80.1396 62.5254 80.069 62.4517C80.0053 62.3813 79.9257 62.3273 79.8368 62.294C79.6712 62.2344 79.5023 62.1842 79.3311 62.1434C79.1369 62.0958 78.9007 62.0332 78.6169 61.9555C78.463 61.9186 78.3157 61.8582 78.1802 61.7764C78.0734 61.7103 77.9792 61.6257 77.902 61.5267C77.8356 61.4394 77.7861 61.3405 77.7561 61.235C77.7276 61.132 77.7133 61.0273 77.7133 60.9203C77.7081 60.7415 77.7483 60.5643 77.8301 60.4052C77.9118 60.2461 78.0326 60.1103 78.181 60.0104C78.3237 59.9105 78.4838 59.8376 78.6637 59.7892C78.8428 59.7417 79.0243 59.7179 79.2074 59.7179C79.4215 59.7179 79.6228 59.7456 79.8114 59.8011C80.0009 59.8566 80.1665 59.939 80.31 60.05C80.4519 60.161 80.566 60.2965 80.65 60.4598C80.7371 60.6347 80.7804 60.8281 80.7761 61.0234H80.0603C80.0413 60.7602 79.9509 60.5739 79.7908 60.4654C79.6307 60.3568 79.4262 60.3021 79.1781 60.3021C79.0941 60.3021 79.0085 60.3108 78.9205 60.3274C78.8368 60.3434 78.756 60.3723 78.6811 60.413C78.6089 60.4531 78.5466 60.5089 78.4988 60.5763C78.4498 60.6531 78.4249 60.7429 78.4275 60.8339C78.4275 60.979 78.4735 61.0931 78.5638 61.1748C78.6526 61.2564 78.7699 61.319 78.915 61.361C78.9308 61.365 78.9903 61.3801 79.0957 61.4102L79.4468 61.5037L79.8273 61.6044C79.9525 61.6369 80.0413 61.6607 80.0936 61.6757C80.2284 61.7177 80.3449 61.7756 80.444 61.8477C80.543 61.9198 80.6255 62.0031 80.6928 62.0966C80.7594 62.1893 80.8102 62.29 80.8411 62.3978C80.8744 62.504 80.8902 62.6102 80.8902 62.7172C80.8966 62.922 80.8482 63.1248 80.7499 63.3046C80.6592 63.464 80.5328 63.6002 80.3806 63.7025C80.2215 63.8077 80.0453 63.8842 79.8598 63.9284C79.665 63.976 79.4651 64 79.2645 63.9997C79.0323 63.9997 78.8127 63.972 78.6066 63.9133C78.4114 63.8626 78.2283 63.7737 78.0676 63.6518C77.9123 63.5299 77.787 63.374 77.7014 63.196C77.6103 63.0097 77.5619 62.7918 77.558 62.5397L78.2737 62.5405ZM83.2277 42.6714H83.475C83.6843 42.6714 83.8753 42.6611 83.8753 42.4209C83.8753 42.2188 83.7009 42.1879 83.5416 42.1879H83.2285L83.2277 42.6714ZM82.9923 41.9961H83.5804C83.9419 41.9961 84.1115 42.1388 84.1115 42.4313C84.1115 42.7063 83.9371 42.8212 83.712 42.845L84.1472 43.5172H83.8927L83.479 42.8625H83.2285V43.5172H82.9923V41.9961ZM83.4996 43.8683C84.102 43.8683 84.5673 43.388 84.5673 42.7507C84.5673 42.1285 84.102 41.6489 83.4996 41.6489C82.8908 41.6489 82.4248 42.1285 82.4248 42.7507C82.4248 43.388 82.8908 43.8683 83.4996 43.8683ZM83.4996 41.4579C84.2098 41.4579 84.8043 42.0175 84.8043 42.7515C84.8043 43.4997 84.2098 44.0593 83.4996 44.0593C82.7862 44.0593 82.1886 43.4997 82.1886 42.7515C82.1886 42.0175 82.7862 41.4579 83.4996 41.4579Z" fill="#1DCAD3"/>
</svg>
