<svg width="108" height="64" viewBox="0 0 108 64" fill="none" xmlns="http://www.w3.org/2000/svg">
<path d="M30.7782 23.2436C30.7782 24.5606 30.9206 25.6285 31.1698 26.4116C31.4545 27.1947 31.8105 28.0489 32.3088 28.9744C32.4868 29.2592 32.558 29.5439 32.558 29.7931C32.558 30.1491 32.3444 30.505 31.8817 30.861L29.6392 32.356C29.3188 32.5695 28.9985 32.6763 28.7137 32.6763C28.3578 32.6763 28.0018 32.4983 27.6459 32.178C27.1475 31.6441 26.7204 31.0745 26.3644 30.505C26.0085 29.8999 25.6525 29.2236 25.261 28.4049C22.4846 31.6796 18.9963 33.317 14.796 33.317C11.806 33.317 9.42117 32.4627 7.67701 30.7542C5.93285 29.0456 5.04297 26.7675 5.04297 23.9199C5.04297 20.8943 6.11082 18.4383 8.28212 16.5873C10.4534 14.7364 13.3366 13.8109 17.0029 13.8109C18.2132 13.8109 19.459 13.9177 20.776 14.0957C22.093 14.2736 23.4456 14.5584 24.8694 14.8788V12.2803C24.8694 9.57508 24.2999 7.68854 23.1965 6.5851C22.0574 5.48165 20.1353 4.94772 17.3945 4.94772C16.1486 4.94772 14.8672 5.0901 13.5502 5.41046C12.2332 5.73081 10.9518 6.12236 9.70593 6.62069C9.13641 6.86986 8.70927 7.01224 8.4601 7.08343C8.21093 7.15462 8.03296 7.19021 7.89058 7.19021C7.39225 7.19021 7.14308 6.83426 7.14308 6.08676V4.3426C7.14308 3.77308 7.21427 3.34594 7.39225 3.09677C7.57022 2.84761 7.89058 2.59844 8.38891 2.34928C9.63474 1.70857 11.1297 1.17464 12.8739 0.747497C14.6181 0.284761 16.469 0.0711902 18.4267 0.0711902C22.6625 0.0711902 25.7593 1.03226 27.7527 2.95439C29.7104 4.87653 30.707 7.79533 30.707 11.7108V23.2436H30.7782ZM16.3266 28.6541C17.5013 28.6541 18.7115 28.4405 19.9929 28.0134C21.2743 27.5862 22.4134 26.8031 23.3745 25.7353C23.944 25.059 24.3711 24.3115 24.5847 23.4572C24.7983 22.6029 24.9406 21.5706 24.9406 20.3604V18.8654C23.9084 18.6162 22.8049 18.4027 21.6659 18.2603C20.5268 18.1179 19.4234 18.0467 18.3199 18.0467C15.9351 18.0467 14.1909 18.5095 13.0163 19.4705C11.8416 20.4316 11.2721 21.7842 11.2721 23.564C11.2721 25.2369 11.6993 26.4828 12.5891 27.337C13.4434 28.2269 14.6892 28.6541 16.3266 28.6541ZM44.9095 32.4983C44.2688 32.4983 43.8416 32.3916 43.5569 32.1424C43.2721 31.9288 43.023 31.4305 42.8094 30.7542L34.4445 3.23915C34.231 2.52725 34.1242 2.06452 34.1242 1.81535C34.1242 1.24583 34.4089 0.925473 34.9785 0.925473H38.4668C39.1431 0.925473 39.6058 1.03226 39.855 1.28142C40.1397 1.49499 40.3533 1.99333 40.5669 2.66963L46.5469 26.2336L52.0997 2.66963C52.2777 1.95773 52.4912 1.49499 52.776 1.28142C53.0608 1.06785 53.5591 0.925473 54.1998 0.925473H57.0474C57.7237 0.925473 58.1865 1.03226 58.4712 1.28142C58.756 1.49499 59.0052 1.99333 59.1475 2.66963L64.7716 26.5184L70.9295 2.66963C71.1431 1.95773 71.3923 1.49499 71.6414 1.28142C71.9262 1.06785 72.3889 0.925473 73.0296 0.925473H76.34C76.9095 0.925473 77.2298 1.21023 77.2298 1.81535C77.2298 1.99333 77.1943 2.1713 77.1587 2.38487C77.1231 2.59844 77.0519 2.8832 76.9095 3.27475L68.3311 30.7898C68.1175 31.5017 67.8683 31.9644 67.5836 32.178C67.2988 32.3916 66.8361 32.5339 66.231 32.5339H63.1698C62.4935 32.5339 62.0307 32.4271 61.746 32.178C61.4612 31.9288 61.2121 31.4661 61.0697 30.7542L55.5524 7.79533L50.0708 30.7186C49.8928 31.4305 49.6792 31.8932 49.3945 32.1424C49.1097 32.3916 48.6114 32.4983 47.9707 32.4983H44.9095ZM90.6492 33.4594C88.7983 33.4594 86.9473 33.2458 85.1676 32.8187C83.3878 32.3916 81.9996 31.9288 81.0741 31.3949C80.5046 31.0745 80.1131 30.7186 79.9707 30.3982C79.8283 30.0779 79.7571 29.7219 79.7571 29.4016V27.5862C79.7571 26.8387 80.0419 26.4828 80.5758 26.4828C80.7894 26.4828 81.0029 26.5184 81.2165 26.5895C81.4301 26.6607 81.7504 26.8031 82.1064 26.9455C83.3166 27.4794 84.6336 27.9066 86.0218 28.1913C87.4456 28.4761 88.8339 28.6185 90.2577 28.6185C92.5002 28.6185 94.2443 28.2269 95.4545 27.4438C96.6648 26.6607 97.3055 25.5217 97.3055 24.0623C97.3055 23.0656 96.9851 22.2469 96.3444 21.5706C95.7037 20.8943 94.4935 20.2892 92.7493 19.7197L87.588 18.1179C84.9896 17.2992 83.0674 16.089 81.8928 14.4872C80.7182 12.921 80.1131 11.1769 80.1131 9.32592C80.1131 7.83092 80.4334 6.51391 81.0741 5.37486C81.7148 4.23582 82.5691 3.23916 83.637 2.45606C84.7048 1.63738 85.9151 1.03226 87.3389 0.605117C88.7627 0.177976 90.2577 0 91.8238 0C92.6069 0 93.4256 0.0355951 94.2087 0.14238C95.0274 0.249166 95.7749 0.391546 96.5224 0.533927C97.2343 0.711902 97.9106 0.889878 98.5513 1.10345C99.192 1.31702 99.6904 1.53059 100.046 1.74416C100.545 2.02892 100.901 2.31368 101.114 2.63404C101.328 2.9188 101.435 3.31035 101.435 3.80868V5.48165C101.435 6.22914 101.15 6.62069 100.616 6.62069C100.331 6.62069 99.8683 6.47831 99.2632 6.19355C97.2343 5.26808 94.9562 4.80534 92.429 4.80534C90.4 4.80534 88.7983 5.1257 87.6948 5.802C86.5914 6.47831 86.0218 7.51057 86.0218 8.96997C86.0218 9.96663 86.3778 10.8209 87.0897 11.4972C87.8016 12.1735 89.1186 12.8498 91.0052 13.455L96.0597 15.0567C98.6225 15.8754 100.473 17.0145 101.577 18.4739C102.68 19.9333 103.214 21.6062 103.214 23.4572C103.214 24.9878 102.894 26.376 102.289 27.5862C101.648 28.7964 100.794 29.8643 99.6904 30.7186C98.5869 31.6085 97.2699 32.2492 95.7393 32.7119C94.1375 33.2102 92.4646 33.4594 90.6492 33.4594Z" fill="#1DCAD3"/>
<path fill-rule="evenodd" clip-rule="evenodd" d="M97.3781 50.7587C85.6673 59.4083 68.6528 64 54.0232 64C33.5204 64 15.0466 56.4183 1.09327 43.8176C-0.0101749 42.821 0.986488 41.4683 2.30351 42.2514C17.3958 51.0078 36.0121 56.3115 55.269 56.3115C68.2613 56.3115 82.5349 53.6063 95.6695 48.0534C97.6272 47.1636 99.3002 49.3349 97.3781 50.7587Z" fill="#1DCAD3"/>
<path fill-rule="evenodd" clip-rule="evenodd" d="M102.254 45.2059C100.759 43.2837 92.3585 44.2804 88.5498 44.7431C87.4108 44.8855 87.2328 43.8888 88.265 43.1413C94.9569 38.4428 105.956 39.7954 107.237 41.3616C108.519 42.9634 106.881 53.9623 100.617 59.2303C99.6555 60.049 98.73 59.6219 99.1572 58.554C100.581 55.0301 103.749 47.0924 102.254 45.2059Z" fill="#1DCAD3"/>
</svg>
