<svg width="32" height="32" viewBox="0 0 32 32" fill="none" xmlns="http://www.w3.org/2000/svg">
<path d="M22.4963 11.0852C22.3576 10.7259 22.1453 10.3995 21.8729 10.1271C21.6005 9.85472 21.2742 9.64238 20.9148 9.50373C20.4192 9.32009 19.8958 9.22302 19.3674 9.21676C18.4886 9.17666 18.2251 9.16823 16 9.16823C13.7749 9.16823 13.5114 9.17666 12.6326 9.21675C12.1042 9.223 11.5808 9.32007 11.0852 9.50371C10.7259 9.64236 10.3995 9.85471 10.1271 10.1271C9.85471 10.3995 9.64237 10.7258 9.50372 11.0852C9.32008 11.5808 9.22301 12.1042 9.21675 12.6326C9.17667 13.5114 9.16824 13.775 9.16824 16C9.16824 18.225 9.17669 18.4886 9.21675 19.3674C9.223 19.8958 9.32007 20.4192 9.50372 20.9148C9.64237 21.2741 9.85471 21.6005 10.1271 21.8729C10.3995 22.1453 10.7259 22.3576 11.0852 22.4963C11.5808 22.6799 12.1042 22.777 12.6326 22.7832C13.5112 22.8232 13.7748 22.8318 16 22.8318C18.2253 22.8318 18.4888 22.8233 19.3674 22.7832C19.8958 22.777 20.4192 22.6799 20.9148 22.4963C21.2742 22.3576 21.6005 22.1453 21.8729 21.8729C22.1453 21.6005 22.3576 21.2741 22.4963 20.9148C22.6799 20.4192 22.777 19.8958 22.7833 19.3674C22.8233 18.4886 22.8318 18.2251 22.8318 16C22.8318 13.7748 22.8233 13.5114 22.7833 12.6326C22.777 12.1042 22.6799 11.5808 22.4963 11.0852ZM16 20.2793C15.1536 20.2793 14.3263 20.0283 13.6226 19.5581C12.9188 19.0879 12.3704 18.4195 12.0465 17.6376C11.7226 16.8557 11.6378 15.9952 11.8029 15.1652C11.9681 14.3351 12.3756 13.5726 12.9741 12.9741C13.5726 12.3756 14.3351 11.9681 15.1652 11.8029C15.9953 11.6378 16.8557 11.7226 17.6376 12.0465C18.4195 12.3703 19.0879 12.9188 19.5581 13.6226C20.0283 14.3263 20.2793 15.1536 20.2793 16C20.2793 16.562 20.1686 17.1184 19.9536 17.6376C19.7385 18.1568 19.4233 18.6285 19.0259 19.0259C18.6285 19.4233 18.1568 19.7385 17.6376 19.9535C17.1184 20.1686 16.562 20.2793 16 20.2793ZM20.4483 12.5517C20.2506 12.5517 20.0572 12.493 19.8928 12.3831C19.7283 12.2733 19.6001 12.1171 19.5245 11.9343C19.4488 11.7516 19.429 11.5506 19.4676 11.3566C19.5061 11.1626 19.6014 10.9844 19.7412 10.8446C19.8811 10.7047 20.0593 10.6095 20.2532 10.5709C20.4472 10.5323 20.6483 10.5521 20.831 10.6278C21.0137 10.7035 21.1699 10.8316 21.2798 10.9961C21.3897 11.1605 21.4483 11.3539 21.4483 11.5517C21.4483 11.8169 21.343 12.0712 21.1554 12.2588C20.9679 12.4463 20.7136 12.5517 20.4483 12.5517ZM18.7778 16C18.7778 16.5494 18.6149 17.0865 18.3097 17.5433C18.0044 18.0001 17.5706 18.3561 17.063 18.5664C16.5554 18.7766 15.9969 18.8316 15.4581 18.7244C14.9192 18.6173 14.4243 18.3527 14.0358 17.9642C13.6473 17.5757 13.3827 17.0808 13.2756 16.5419C13.1684 16.0031 13.2234 15.4446 13.4336 14.937C13.6439 14.4294 13.9999 13.9956 14.4567 13.6903C14.9135 13.3851 15.4506 13.2222 16 13.2222C16.7367 13.2222 17.4433 13.5149 17.9642 14.0358C18.4851 14.5567 18.7778 15.2633 18.7778 16ZM16 2.17036e-10C12.8355 2.17035e-10 9.74207 0.938383 7.11088 2.69649C4.4797 4.45459 2.42894 6.95345 1.21793 9.87706C0.00693252 12.8007 -0.309921 16.0177 0.307443 19.1214C0.924806 22.2251 2.44866 25.0761 4.6863 27.3137C6.92394 29.5513 9.77486 31.0752 12.8786 31.6926C15.9823 32.3099 19.1993 31.9931 22.1229 30.7821C25.0466 29.5711 27.5454 27.5203 29.3035 24.8891C31.0616 22.2579 32 19.1645 32 16C32 13.8988 31.5862 11.8183 30.7821 9.87705C29.978 7.93584 28.7995 6.17201 27.3137 4.68627C25.828 3.20053 24.0642 2.02198 22.1229 1.21791C20.1817 0.413834 18.1012 -1.09434e-05 16 2.17036e-10ZM24.2832 19.4358C24.2693 20.1271 24.1383 20.8111 23.8958 21.4586C23.6818 22.0122 23.3544 22.515 22.9347 22.9347C22.515 23.3544 22.0123 23.6817 21.4587 23.8958C20.8112 24.1383 20.1272 24.2693 19.4359 24.2831C18.547 24.3238 18.2632 24.3333 16 24.3333C13.7368 24.3333 13.453 24.3238 12.5641 24.2832C11.8728 24.2693 11.1889 24.1383 10.5413 23.8958C9.98775 23.6818 9.48499 23.3544 9.0653 22.9347C8.64562 22.515 8.31825 22.0123 8.10421 21.4587C7.86169 20.8112 7.73071 20.1272 7.71684 19.4359C7.67624 18.547 7.66667 18.2632 7.66667 16C7.66667 13.7368 7.67624 13.453 7.71682 12.5641C7.7307 11.8728 7.86167 11.1889 8.10419 10.5413C8.31823 9.98774 8.6456 9.48498 9.06529 9.06529C9.48497 8.6456 9.98773 8.31823 10.5413 8.10418C11.1888 7.86167 11.8728 7.73069 12.5641 7.71681C13.453 7.67623 13.7368 7.66666 16 7.66666C18.2632 7.66666 18.547 7.67623 19.4359 7.71681C20.1272 7.73069 20.8111 7.86167 21.4587 8.10418C22.0123 8.31823 22.515 8.64559 22.9347 9.06528C23.3544 9.48497 23.6818 9.98773 23.8958 10.5413C24.1383 11.1888 24.2693 11.8728 24.2832 12.5641C24.3238 13.453 24.3333 13.7368 24.3333 16C24.3333 18.2632 24.3238 18.547 24.2832 19.4359V19.4358Z" fill="#1DCAD3"/>
</svg>
