<svg width="115" height="64" viewBox="0 0 115 64" fill="none" xmlns="http://www.w3.org/2000/svg">
<path d="M48.71 47.028H16.2383V35.8308H48.71C49.6009 35.8308 50.4553 35.4769 51.0852 34.847C51.7152 34.217 52.0691 33.3626 52.0691 32.4717C52.0691 31.5808 51.7152 30.7264 51.0852 30.0964C50.4553 29.4664 49.6009 29.1125 48.71 29.1125H30.7946C22.7683 29.1125 16.2383 22.5825 16.2383 14.5563C16.2383 6.53003 22.7683 0 30.7946 0H63.2662V11.1971H30.7946C29.9037 11.1971 29.0492 11.551 28.4193 12.181C27.7893 12.811 27.4354 13.6654 27.4354 14.5563C27.4354 15.4472 27.7893 16.3016 28.4193 16.9315C29.0492 17.5615 29.9037 17.9154 30.7946 17.9154H48.71C56.7362 17.9154 63.2662 24.4454 63.2662 32.4717C63.2662 40.4979 56.7362 47.028 48.71 47.028Z" fill="#1DCAD3"/>
<path d="M78.9412 17.9154H67.7441V47.0279H78.9412V17.9154Z" fill="#1DCAD3"/>
<path d="M100.317 29.1125C108.294 29.0573 114.772 22.5489 114.772 14.5563C114.772 6.53003 108.242 0 100.216 0H67.7441V11.1971H100.216C101.107 11.1971 101.961 11.551 102.591 12.181C103.221 12.811 103.575 13.6654 103.575 14.5563C103.575 15.4472 103.221 16.3016 102.591 16.9315C101.961 17.5615 101.107 17.9154 100.216 17.9154H82.1996L96.7559 47.028H109.274L100.317 29.1125Z" fill="#1DCAD3"/>
<path d="M12.3188 6.15842C12.3188 2.75722 9.56158 0 6.16037 0C2.75917 0 0.00195312 2.75722 0.00195312 6.15842C0.00195312 9.55962 2.75917 12.3168 6.16037 12.3168C9.56158 12.3168 12.3188 9.55962 12.3188 6.15842Z" fill="#1DCAD3"/>
<path d="M11.7596 15.1161H0.5625V47.028H11.7596V15.1161Z" fill="#1DCAD3"/>
<path d="M4.58018 59.2405H2.85862V63.923H1.70042V59.2405H0.00195312V58.3021H4.58018V59.2405Z" fill="#1DCAD3"/>
<path d="M15.737 61.4869H13.5137V62.9923H16.1233V63.923H12.3555V58.3021H16.1156V59.2405H13.5137V60.58H15.737V61.4869Z" fill="#1DCAD3"/>
<path d="M28.3292 62.0503C28.2854 62.6568 28.0619 63.1329 27.6588 63.4787C27.2557 63.8244 26.725 63.9982 26.0667 64C25.3459 64 24.779 63.7574 24.3662 63.2722C23.9533 62.787 23.7468 62.1212 23.7468 61.2749V60.9313C23.7367 60.4401 23.8341 59.9526 24.0323 59.503C24.2039 59.1127 24.4883 58.7826 24.849 58.5554C25.2203 58.3302 25.648 58.2157 26.0821 58.2251C26.7306 58.2251 27.2531 58.3989 27.6497 58.7465C28.0463 59.094 28.2754 59.5816 28.3369 60.2091H27.1787C27.1498 59.8466 27.0488 59.5834 26.8757 59.4197C26.7015 59.2566 26.4376 59.1747 26.0821 59.1747C25.6967 59.1747 25.408 59.3131 25.2157 59.5897C25.0235 59.8664 24.9251 60.2954 24.9204 60.8767V61.3043C24.9204 61.9108 25.0123 62.354 25.1961 62.634C25.38 62.9139 25.6702 63.0539 26.0667 63.0539C26.4246 63.0539 26.6917 62.9722 26.868 62.8089C27.0444 62.6456 27.1454 62.3928 27.171 62.0503H28.3292Z" fill="#1DCAD3"/>
<path d="M40.7798 63.923H39.6216V61.5142H37.3633V63.923H36.2051V58.3021H37.3633V60.58H39.6216V58.3021H40.7798V63.923Z" fill="#1DCAD3"/>
<path d="M53.4768 63.923H52.3186L50.0645 60.2245V63.923H48.9062V58.3021H50.0645L52.3228 62.0111V58.3021H53.4768V63.923Z" fill="#1DCAD3"/>
<path d="M66.2191 61.2399C66.2295 61.7407 66.1288 62.2376 65.9245 62.6949C65.7458 63.0925 65.4537 63.4285 65.0847 63.6606C64.7057 63.8823 64.2747 63.9994 63.8356 64C63.3966 64.0007 62.9653 63.8847 62.5857 63.6641C62.2151 63.434 61.9202 63.1001 61.7375 62.704C61.5295 62.2549 61.4252 61.7649 61.4324 61.27V60.9901C61.422 60.4868 61.5243 59.9875 61.7319 59.5289C61.912 59.1297 62.2062 58.7928 62.5773 58.5603C62.9562 58.3389 63.3872 58.2223 63.8261 58.2223C64.2649 58.2223 64.6959 58.3389 65.0749 58.5603C65.4458 58.793 65.7399 59.1299 65.9203 59.5289C66.1273 59.9862 66.2294 60.484 66.2191 60.9859V61.2399ZM65.0455 60.9852C65.0455 60.396 64.9401 59.9481 64.7292 59.6415C64.6307 59.4937 64.4957 59.3738 64.3373 59.2934C64.1789 59.213 64.0025 59.1748 63.825 59.1825C63.4369 59.1825 63.1371 59.3336 62.9258 59.6359C62.7144 59.9383 62.6076 60.3815 62.6053 60.9656V61.2399C62.6053 61.8138 62.7107 62.2589 62.9216 62.5752C63.0183 62.7271 63.1533 62.851 63.313 62.9344C63.4726 63.0178 63.6514 63.0578 63.8313 63.0504C64.2204 63.0504 64.519 62.8978 64.7271 62.5927C64.9352 62.2876 65.0406 61.8444 65.0434 61.263L65.0455 60.9852Z" fill="#1DCAD3"/>
<path d="M75.3333 62.9923H77.7924V63.923H74.1758V58.3021H75.3333V62.9923Z" fill="#1DCAD3"/>
<path d="M89.9418 61.2399C89.9526 61.7406 89.8525 62.2374 89.6486 62.6948C89.4697 63.0923 89.1776 63.4282 88.8088 63.6606C88.4297 63.8822 87.9985 63.9993 87.5594 64C87.1202 64.0006 86.6888 63.8847 86.309 63.6641C85.9383 63.4339 85.6432 63.1001 85.4601 62.7039C85.2521 62.2549 85.1478 61.7648 85.155 61.27V60.9901C85.1446 60.4868 85.2469 59.9875 85.4545 59.5289C85.6347 59.1297 85.9288 58.7928 86.2999 58.5603C86.6789 58.3389 87.1099 58.2223 87.5488 58.2223C87.9876 58.2223 88.4186 58.3389 88.7976 58.5603C89.1683 58.7932 89.4623 59.13 89.643 59.5289C89.8497 59.9863 89.9517 60.484 89.9418 60.9859V61.2399ZM88.7682 60.9852C88.7682 60.3959 88.6627 59.948 88.4519 59.6415C88.3534 59.4938 88.2186 59.374 88.0603 59.2936C87.9021 59.2132 87.7257 59.1749 87.5484 59.1824C87.1598 59.1824 86.86 59.3336 86.6491 59.6359C86.4383 59.9382 86.3314 60.3815 86.3286 60.9656V61.2399C86.3286 61.8138 86.4341 62.2588 86.6449 62.5752C86.7417 62.7271 86.8767 62.8509 87.0363 62.9343C87.196 63.0177 87.3747 63.0577 87.5547 63.0503C87.9433 63.0503 88.2419 62.8978 88.4505 62.5927C88.659 62.2875 88.7645 61.8443 88.7668 61.263L88.7682 60.9852Z" fill="#1DCAD3"/>
<path d="M102.346 63.2127C102.108 63.4815 101.803 63.682 101.462 63.7936C101.055 63.9353 100.627 64.0051 100.196 64C99.7488 64.0098 99.3069 63.8999 98.9162 63.6816C98.5465 63.4661 98.2506 63.1438 98.0673 62.7571C97.8581 62.3117 97.7531 61.8244 97.7601 61.3323V60.9502C97.7601 60.3903 97.8534 59.9047 98.04 59.4932C98.2112 59.1034 98.4967 58.7749 98.8588 58.5512C99.2377 58.3276 99.6717 58.2146 100.112 58.2251C100.778 58.2251 101.299 58.3839 101.675 58.7017C102.051 59.0194 102.274 59.482 102.343 60.0894H101.215C101.164 59.768 101.05 59.5326 100.874 59.3833C100.697 59.234 100.455 59.1593 100.146 59.1593C99.7525 59.1593 99.4528 59.3072 99.2465 59.603C99.0403 59.8988 98.9361 60.339 98.9337 60.9236V61.2826C98.9337 61.8719 99.0457 62.3169 99.2696 62.6179C99.4936 62.9188 99.8218 63.0695 100.254 63.0699C100.689 63.0699 100.999 62.9766 101.184 62.79V61.8229H100.13V60.9698H102.343L102.346 63.2127Z" fill="#1DCAD3"/>
<path d="M112.336 60.8347L113.506 58.3021H114.772L112.927 61.8844V63.923H111.75V61.8844L109.904 58.3021H111.174L112.336 60.8347Z" fill="#1DCAD3"/>
</svg>
