<svg width="64" height="65" viewBox="0 0 64 65" fill="none" xmlns="http://www.w3.org/2000/svg">
<path d="M31.9999 0.00012207C27.3972 0.00012207 23.6273 3.77 23.6273 8.37272C23.6273 11.0264 24.9035 13.3835 26.8467 14.9248V27.9982L9.24559 27.9978C8.77496 27.9991 8.31951 28.1666 7.96008 28.4707L0.708617 34.5419C0.259421 34.9223 0 35.4809 0 36.0698C0 36.6583 0.259421 37.2174 0.708617 37.5973L7.96008 43.6686C8.31952 43.9726 8.77497 44.1401 9.24559 44.1414H26.8467V62.0238C26.849 62.5542 27.0615 63.0623 27.4379 63.4357C27.8148 63.8094 28.3242 64.0184 28.8548 64.0162H35.1609C35.6887 64.0144 36.1941 63.8036 36.5675 63.4303C36.9408 63.057 37.1515 62.5516 37.1533 62.0238V34.5099H54.7544C55.225 34.5085 55.6805 34.3411 56.0399 34.0374L63.2914 27.9698C63.7406 27.5898 64 27.0307 64 26.4423C64 25.8533 63.7406 25.2947 63.2914 24.9143L56.0399 18.8431C55.6805 18.539 55.225 18.3715 54.7544 18.3702H37.1533V14.9241C39.097 13.3827 40.3726 11.0259 40.3726 8.37193C40.3726 3.76921 36.6027 0.00012207 31.9999 0.00012207ZM31.9999 4.0049C34.4402 4.0049 36.3874 5.93247 36.3874 8.37272C36.3874 10.04 35.4667 11.459 34.1133 12.2016C33.8306 12.3596 33.5328 12.4739 33.2265 12.565C33.1684 12.5816 33.1135 12.6052 33.0546 12.6195C32.7117 12.7057 32.358 12.7593 31.9999 12.7602C31.6418 12.7597 31.2917 12.7057 30.9488 12.6195C30.8885 12.6052 30.8323 12.5816 30.7729 12.565C30.4759 12.4766 30.1844 12.3646 29.9093 12.2132C28.5501 11.4733 27.6316 10.0472 27.6316 8.37267C27.6316 5.93243 29.5592 4.0049 31.9999 4.0049ZM30.8475 16.6439C31.2279 16.6975 31.6052 16.7609 31.9999 16.7609C32.3938 16.7609 32.7729 16.6975 33.1524 16.6439V60.0112H30.851L30.8475 16.6439ZM37.1532 22.3713H54.0319L58.8923 26.4346L54.0319 30.5095H37.1532V22.3713ZM9.96847 32.0022H26.8472V40.1368L9.96847 40.1364L5.11222 36.0615L9.96847 32.0022Z" fill="#1dcad3"/>
</svg>
