<svg width="65" height="64" viewBox="0 0 65 64" fill="none" xmlns="http://www.w3.org/2000/svg">
<path d="M59.3461 49.6806C59.4731 49.2658 59.8216 48.9566 60.2486 48.8806L64.5002 48.1719V43.2576L60.2486 42.5489C59.8216 42.4729 59.4731 42.1637 59.3461 41.7489C59.0797 40.88 58.7313 40.0381 58.3058 39.2346C58.0996 38.854 58.1262 38.3892 58.3746 38.0346L60.8889 34.526L57.4031 31.0402L53.8945 33.5545C53.5399 33.8029 53.0751 33.8295 52.6945 33.6233C51.8909 33.1978 51.049 32.8493 50.1802 32.583C49.7654 32.456 49.4562 32.1075 49.3802 31.6805L48.6715 27.4289H43.7572L43.0485 31.6805C42.9725 32.1075 42.6633 32.456 42.2485 32.583C41.3796 32.8494 40.5378 33.1978 39.7342 33.6233C39.3536 33.8295 38.8888 33.8029 38.5342 33.5545L35.0256 31.0402L31.5398 34.526L34.0541 38.0346C34.3025 38.3892 34.3291 38.854 34.1229 39.2346C33.7036 40.054 33.352 40.9066 33.0714 41.7831C32.9331 42.1801 32.5928 42.4719 32.1801 42.549L27.9285 43.2576V48.1719L32.1801 48.8806C32.6071 48.9566 32.9556 49.2658 33.0826 49.6806C33.349 50.5495 33.6974 51.3914 34.1229 52.1949C34.3291 52.5755 34.3025 53.0403 34.0541 53.3949L31.5398 56.9036L35.0256 60.3894L38.5342 57.8751C38.8888 57.6266 39.3536 57.6001 39.7342 57.8062C40.5378 58.2317 41.3797 58.5802 42.2485 58.8465C42.6633 58.9735 42.9725 59.322 43.0485 59.7491L43.7572 64.0006H48.6715L49.3802 59.7491C49.4562 59.322 49.7654 58.9736 50.1802 58.8465C51.0491 58.5802 51.891 58.2317 52.6945 57.8062C53.0751 57.6001 53.5399 57.6266 53.8945 57.8751L57.4031 60.3894L60.8889 56.9036L58.3746 53.3949C58.1262 53.0403 58.0996 52.5755 58.3058 52.1949C58.7313 51.3913 59.0798 50.5495 59.3461 49.6806V49.6806ZM46.2143 56.0005C43.4861 56.0005 40.8698 54.9169 38.9412 52.9878C37.0121 51.0592 35.9285 48.4429 35.9285 45.7148C35.9285 42.9867 37.0122 40.3704 38.9412 38.4417C40.8698 36.5126 43.4861 35.429 46.2143 35.429C48.9424 35.429 51.5587 36.5127 53.4873 38.4417C55.4165 40.3704 56.5 42.9867 56.5 45.7148C56.4964 48.4419 55.4118 51.0562 53.4836 52.9842C51.5555 54.9122 48.9413 55.9969 46.2143 56.0005V56.0005Z" fill="#1dcad3"/>
<path d="M54.2137 45.7152C54.2137 50.1336 50.6321 53.7152 46.2137 53.7152C41.7953 53.7152 38.2137 50.1336 38.2137 45.7152C38.2137 41.2968 41.7953 37.7151 46.2137 37.7151C50.6321 37.7151 54.2137 41.2968 54.2137 45.7152Z" fill="#1dcad3"/>
<path d="M34.0873 28.7434C34.4812 28.3459 35.1057 28.2928 35.5612 28.6178L36.3383 29.1781V29.1775C37.573 25.8975 37.2322 22.2316 35.4138 19.2352C33.5954 16.2388 30.501 14.2438 27.0214 13.8244C23.5417 13.4045 20.0617 14.6071 17.5836 17.0857C15.1049 19.5638 13.9024 23.0438 14.3223 26.5235C14.7417 30.0031 16.7365 33.0975 19.7331 34.9159C22.7295 36.7343 26.3954 37.075 29.6754 35.8404L29.1152 35.0633H29.1157C28.7979 34.6057 28.8504 33.9868 29.2413 33.5894L34.0873 28.7434Z" fill="#1D1934"/>
<path d="M8.7397 32.0923C8.75093 32.1152 8.76266 32.1265 8.76266 32.1494C9.13052 32.9933 9.07134 33.9627 8.60296 34.755L5.26567 40.3208L10.4656 45.5208L16.0197 42.1835C16.46 41.9248 16.9605 41.7865 17.4712 41.7835C17.8722 41.784 18.2686 41.8656 18.637 42.0238C18.66 42.0238 18.6712 42.035 18.6941 42.0467C19.5411 42.3891 20.1732 43.1151 20.3967 44.0008L21.9625 50.2866H26.6942L26.6029 50.2754C26.0483 50.1851 25.6411 49.7055 25.6426 49.1437V42.2865C25.6411 41.7248 26.0483 41.2452 26.6029 41.1549L31.1401 40.4008H31.1396C31.3263 39.8554 31.5437 39.3212 31.7911 38.8008L31.0253 37.7381C27.0722 39.4376 22.5523 39.1922 18.8063 37.0738C15.0609 34.9559 12.5206 31.2085 11.94 26.9451C11.3594 22.6813 12.8048 18.3911 15.8477 15.3487C18.8901 12.3058 23.1804 10.8604 27.4441 11.441C31.7075 12.0216 35.4549 14.562 37.5728 18.3073C39.6912 22.0533 39.9366 26.5732 38.2371 30.5263L39.2998 31.2921C39.8197 31.037 40.3539 30.812 40.8998 30.6181L41.6539 26.1039C41.7442 25.5493 42.2238 25.1421 42.7855 25.1437H49.6427C50.2045 25.1421 50.6841 25.5493 50.7744 26.1039L50.7856 26.1952V21.4635L44.4999 19.8977C43.6141 19.6742 42.8881 19.0421 42.5457 18.1952C42.5345 18.1722 42.5228 18.161 42.5228 18.138C42.1549 17.2942 42.2141 16.3247 42.6825 15.5324L46.0198 9.9554L40.8315 4.76654L35.2656 8.10383C34.8253 8.36251 34.3248 8.50078 33.8141 8.50383C33.4131 8.50332 33.0167 8.42169 32.6483 8.26353C32.6254 8.26353 32.6141 8.25231 32.5912 8.24057C31.7442 7.89822 31.1121 7.1722 30.8886 6.28647L29.3228 0.000732422H21.9626L20.3968 6.28647C20.1733 7.17219 19.5412 7.89824 18.6942 8.24057C18.6713 8.2518 18.66 8.26353 18.6371 8.26353C17.7932 8.63139 16.8238 8.57221 16.0315 8.10383L10.4539 4.76654L5.2656 9.95488L8.60289 15.5207C8.86156 15.961 8.99983 16.4615 9.00289 16.9722C9.00238 17.3732 8.92074 17.7696 8.76259 18.138C8.76259 18.161 8.75136 18.1722 8.73963 18.1951C8.39728 19.0421 7.67125 19.6742 6.78553 19.8977L0.499786 21.4635V28.8238L6.78553 30.3896C7.67124 30.613 8.39737 31.2454 8.7397 32.0923Z" fill="#1D1934"/>
</svg>
