<svg width="64" height="64" viewBox="0 0 64 64" fill="none" xmlns="http://www.w3.org/2000/svg">
<path d="M61.11 6.9685V10.8425C61.1087 12.1262 60.5976 13.3572 59.6901 14.2651C58.7822 15.1727 57.5512 15.6837 56.2675 15.685H7.8425C6.55877 15.6837 5.32783 15.1726 4.41988 14.2651C3.51234 13.3572 3.00133 12.1262 3 10.8425V6.9685C3 6.71168 3.10204 6.46522 3.28363 6.28363C3.46523 6.10204 3.71168 6 3.9685 6H60.1415C60.3983 6 60.6448 6.10204 60.8264 6.28363C61.008 6.46523 61.11 6.71168 61.11 6.9685ZM32.055 38.929C31.2845 38.929 30.5451 39.2351 30.0005 39.7799C29.4558 40.3247 29.1496 41.0641 29.1496 41.8344C29.1496 42.6048 29.4557 43.3443 30.0005 43.889C30.5452 44.4337 31.2846 44.7399 32.055 44.7399C32.8254 44.7399 33.5649 44.4338 34.1095 43.889C34.6542 43.3442 34.9604 42.6048 34.9604 41.8344C34.9596 41.064 34.653 40.3255 34.1087 39.7807C33.5639 39.2363 32.8254 38.9298 32.0549 38.9289L32.055 38.929ZM6.874 32.5823C6.87357 36.0291 7.55844 39.4414 8.88837 42.6209C10.2188 45.8009 12.1674 48.6844 14.622 51.1044V40.866C14.622 34.6377 17.9448 28.8821 23.3385 25.7685C28.7322 22.6541 35.3778 22.6541 40.7715 25.7685C46.1652 28.8824 49.488 34.6376 49.488 40.866V51.2679C51.9387 48.9231 53.8882 46.1059 55.2199 42.9864C56.5515 39.867 57.2373 36.51 57.236 33.1181V17.6221H6.874V32.5823ZM40.7715 41.8345C40.7715 44.1464 39.8532 46.3635 38.2184 47.9979C36.584 49.6328 34.3669 50.551 32.055 50.551C29.7431 50.551 27.526 49.6327 25.8916 47.9979C24.2567 46.3635 23.3385 44.1464 23.3385 41.8345C23.3385 39.5226 24.2568 37.3055 25.8916 35.6711C27.526 34.0362 29.7431 33.118 32.055 33.118C34.366 33.1206 36.5815 34.0398 38.2158 35.6737C39.8497 37.3081 40.7688 39.5235 40.7715 41.8345V41.8345ZM36.8975 41.8345C36.8975 40.5503 36.3873 39.3186 35.4794 38.4101C34.571 37.5021 33.3392 36.992 32.055 36.992C30.7708 36.992 29.5391 37.5022 28.6306 38.4101C27.7226 39.3185 27.2125 40.5503 27.2125 41.8345C27.2125 43.1187 27.7227 44.3504 28.6306 45.2589C29.539 46.1669 30.7708 46.677 32.055 46.677C33.3387 46.6757 34.5697 46.1646 35.4776 45.2571C36.3852 44.3492 36.8962 43.1182 36.8975 41.8345ZM47.551 40.866V52.9473C42.9264 56.5796 37.1717 58.47 31.2935 58.2875C25.9175 58.1279 20.742 56.2117 16.559 52.8323V40.8661C16.559 35.3301 19.5125 30.2144 24.307 27.4466C29.1015 24.6781 35.0085 24.6781 39.803 27.4466C44.5975 30.2146 47.551 35.3304 47.551 40.8661V40.866ZM42.7085 41.8345C42.7085 39.009 41.586 36.2993 39.5882 34.3013C37.5902 32.3034 34.8806 31.181 32.055 31.181C29.2294 31.181 26.5198 32.3035 24.5218 34.3013C22.5239 36.2993 21.4015 39.0089 21.4015 41.8345C21.4015 44.6601 22.524 47.3697 24.5218 49.3677C26.5198 51.3656 29.2294 52.488 32.055 52.488C34.8797 52.485 37.5875 51.3612 39.5846 49.3641C41.5817 47.367 42.7054 44.6591 42.7085 41.8345V41.8345Z" fill="#1DCAD3"/>
</svg>
