<svg width="64" height="64" viewBox="0 0 64 64" fill="none" xmlns="http://www.w3.org/2000/svg">
<g clip-path="url(#clip0_257_3895)">
<path d="M18.3008 47.2C17.5456 47.2 16.784 46.9344 16.176 46.3936L-0.0160065 32L17.0752 16.8064C18.3936 15.6384 20.416 15.7504 21.5904 17.072C22.7648 18.3936 22.6464 20.416 21.3248 21.5904L9.61599 32L20.4256 41.6064C21.7472 42.7808 21.8656 44.8032 20.6912 46.1248C20.0608 46.8384 19.1808 47.2 18.3008 47.2ZM46.9248 47.1936L64.016 32L47.824 17.6064C46.5024 16.432 44.48 16.5504 43.3088 17.872C42.1344 19.1936 42.2528 21.216 43.5744 22.3904L54.384 32L42.6752 42.4064C41.3536 43.5808 41.2352 45.6032 42.4096 46.9248C43.04 47.6384 43.92 48 44.8 48C45.5552 48 46.3168 47.7344 46.9248 47.1936ZM31.9552 51.728L38.3552 13.328C38.6464 11.584 37.4688 9.93601 35.7248 9.64481C33.9744 9.35041 32.3296 10.5312 32.0448 12.2752L25.6448 50.6752C25.3536 52.4192 26.5312 54.0672 28.2752 54.3584C28.4544 54.3872 28.6272 54.4 28.8032 54.4C30.3392 54.4 31.696 53.2896 31.9552 51.728Z" fill="#1DCAD3"/>
</g>
<defs>
<clipPath id="clip0_257_3895">
<rect width="64" height="64" fill="white"/>
</clipPath>
</defs>
</svg>
