<svg width="65" height="65" viewBox="0 0 65 65" fill="none" xmlns="http://www.w3.org/2000/svg">
<path d="M48.5 43.5143C46.4744 43.5143 44.6472 44.3015 43.2616 45.5687L24.26 34.4871C24.4072 33.8855 24.5 33.2583 24.5 32.6183C24.5 31.9783 24.4072 31.3543 24.26 30.7527L43.06 19.7799C44.4872 21.1143 46.3944 21.9399 48.5 21.9399C52.9128 21.9399 56.5 18.3527 56.5 13.9399C56.5 9.52714 52.9128 5.93994 48.5 5.93994C44.0872 5.93994 40.5 9.52714 40.5 13.9399C40.5 14.5799 40.5928 15.2071 40.74 15.8055L21.94 26.7783C20.5128 25.4471 18.6056 24.6183 16.5 24.6183C12.0872 24.6183 8.5 28.2055 8.5 32.6183C8.5 37.0311 12.0872 40.6183 16.5 40.6183C18.6056 40.6183 20.5128 39.7927 21.94 38.4583L40.9416 49.5399C40.8072 50.0999 40.7272 50.6855 40.7272 51.2871C40.7272 55.5815 44.2056 59.0599 48.5 59.0599C52.7944 59.0599 56.2728 55.5783 56.2728 51.2871C56.2728 46.9959 52.7944 43.5143 48.5 43.5143Z" fill="#1DCAD3"/>
</svg>
