<svg width="65" height="65" viewBox="0 0 65 65" fill="none" xmlns="http://www.w3.org/2000/svg">
<g clip-path="url(#clip0_145_1553)">
<path d="M44.02 10.1H22.9V0.5H16.5V60.02C16.5 62.484 18.5128 64.5 20.9736 64.5H44.02C46.4808 64.5 48.5 62.4808 48.5 60.02V14.5832C48.5 12.1128 46.4808 10.1 44.02 10.1ZM26.1 48.5C23.8888 48.5 22.1 47.0696 22.1 45.3C22.1 43.5304 23.8888 42.1 26.1 42.1C28.3112 42.1 30.1 43.5304 30.1 45.3C30.1 47.0696 28.3112 48.5 26.1 48.5ZM30.1 54.9C30.1 56.6696 28.3112 58.1 26.1 58.1C23.8888 58.1 22.1 56.6696 22.1 54.9C22.1 53.1304 23.8888 51.7 26.1 51.7C28.3112 51.7 30.1 53.1304 30.1 54.9ZM22.9 35.7V16.5H42.1V35.7H22.9ZM38.9 48.5C36.6888 48.5 34.9 47.0696 34.9 45.3C34.9 43.5304 36.6888 42.1 38.9 42.1C41.1112 42.1 42.9 43.5304 42.9 45.3C42.9 47.0696 41.1112 48.5 38.9 48.5ZM42.9 54.9C42.9 56.6696 41.1112 58.1 38.9 58.1C36.6888 58.1 34.9 56.6696 34.9 54.9C34.9 53.1304 36.6888 51.7 38.9 51.7C41.1112 51.7 42.9 53.1304 42.9 54.9Z" fill="#1DCAD3"/>
</g>
<defs>
<clipPath id="clip0_145_1553">
<rect width="64" height="64" fill="white" transform="translate(0.5 0.5)"/>
</clipPath>
</defs>
</svg>
