<svg width="54" height="64" viewBox="0 0 54 64" fill="none" xmlns="http://www.w3.org/2000/svg">
<g clip-path="url(#clip0_145_1646)">
<path d="M28.8667 0C34.9387 0 40.1741 2.3327 43.9253 6.10299C47.7844 9.98178 50.0513 15.3524 50.0513 21.2926C50.0513 27.043 47.6225 32.1966 43.8174 35.9127C42.7109 37.0248 41.4425 37.9741 40.1202 38.815C40.3631 39.4389 40.471 40.117 40.471 40.8222C40.471 43.9686 37.9342 46.5455 34.7768 46.5455C32.0511 46.5455 29.7842 44.6196 29.2175 42.0428C29.0826 42.0428 28.9746 42.0428 28.8397 42.0428C27.3284 42.0428 25.8172 42.0157 24.3329 41.9614C23.7932 44.5654 21.4993 46.5455 18.7466 46.5455C15.6162 46.5455 13.0524 43.9958 13.0524 40.8222C13.0524 40.4967 13.0794 40.1712 13.1334 39.8729C9.03138 38.1369 5.65803 35.099 3.58004 29.7012C3.36415 29.1587 3.63402 28.5349 4.20074 28.3179C4.25471 28.2907 4.33568 28.2636 4.38965 28.2636C5.79296 27.9924 6.89942 27.4499 7.57409 26.6633C8.1678 25.9852 8.41068 25.0901 8.24876 24.0322C8.05985 23.0286 7.97889 22.0521 7.97889 21.0756C7.97889 16.2746 9.94893 11.5279 13.1064 7.73045C16.3178 3.96016 20.7167 1.16635 25.6283 0.271244C26.6807 0.108498 27.7872 0 28.8667 0ZM23.1995 25.1986C22.9566 24.6561 23.1725 24.0322 23.7122 23.7881C24.2519 23.544 24.8726 23.761 25.1155 24.3035C25.8172 25.8224 26.9236 26.9074 28.165 27.5584C29.1096 28.0466 30.1351 28.2907 31.1875 28.2907C32.24 28.2907 33.3195 28.0737 34.291 27.6126C35.6943 26.9616 36.9087 25.8495 37.7183 24.2492C37.9882 23.7338 38.6359 23.5168 39.1486 23.7881C39.6614 24.0593 39.8773 24.7103 39.6074 25.2257C38.5549 27.26 36.9897 28.6976 35.1816 29.5656C33.9132 30.1623 32.5369 30.4607 31.1606 30.4336C29.7842 30.4064 28.4349 30.1081 27.1935 29.4571C25.5473 28.6162 24.117 27.2058 23.1995 25.1986ZM24.5218 14.2132C25.7092 14.2132 26.6538 15.1625 26.6538 16.356C26.6538 17.5495 25.7092 18.4988 24.5218 18.4988C23.3344 18.4988 22.3898 17.5495 22.3898 16.356C22.3898 15.1625 23.3344 14.2132 24.5218 14.2132ZM38.3121 14.2132C39.4995 14.2132 40.444 15.1625 40.444 16.356C40.444 17.5495 39.4995 18.4988 38.3121 18.4988C37.1246 18.4988 36.1801 17.5495 36.1801 16.356C36.1801 15.1625 37.1246 14.2132 38.3121 14.2132ZM18.7736 35.099C21.5802 35.099 23.9281 37.1333 24.3869 39.8457C25.8442 39.9 27.3554 39.9271 28.8667 39.9271C34.0212 39.9271 38.8518 37.8385 42.3331 34.3937C45.7604 31.0574 47.9194 26.4463 47.9194 21.2926C47.9194 15.922 45.8684 11.0939 42.4141 7.59483C39.0407 4.20428 34.318 2.1157 28.8667 2.1157C27.8952 2.1157 26.9506 2.19708 26.0061 2.35982C21.6072 3.14643 17.6402 5.669 14.7526 9.08667C11.865 12.5043 10.1378 16.7629 10.1378 21.0485C10.1378 21.9165 10.2188 22.7845 10.3537 23.6525C10.6506 25.3884 10.2188 26.8803 9.1933 28.0466C8.43767 28.9417 7.3582 29.6198 6.06283 30.0267C7.89794 34.0682 10.6236 36.4552 13.916 37.8385C14.8875 36.2382 16.6956 35.099 18.7736 35.099Z" fill="#FBFBFB"/>
<path fill-rule="evenodd" clip-rule="evenodd" d="M0.784044 52.677C0.405307 52.677 0.222469 52.9251 0.340008 53.3038L3.55274 63.1902C3.61804 63.4383 3.86618 63.6995 4.11432 63.6995H6.70018C7.01361 63.6995 7.20951 63.5167 7.26175 63.1902L9.02484 56.6472L10.8532 63.1902C10.9185 63.4383 11.1667 63.6995 11.4801 63.6995H14.0007C14.3141 63.6995 14.51 63.5167 14.6275 63.1902L17.8403 53.3691C17.9709 52.9904 17.775 52.7423 17.3962 52.7423H15.4503C15.1369 52.7423 14.941 52.9904 14.8887 53.1863L12.8775 60.1733L10.9316 53.121C10.8663 52.8076 10.6181 52.677 10.37 52.677H7.95393C7.64049 52.677 7.44459 52.8076 7.39235 53.121L5.44643 60.108L3.48744 53.121C3.42214 52.8729 3.3046 52.677 2.92587 52.677H0.784044ZM23.678 52.3635C20.7787 52.3635 18.1406 54.6229 18.1406 58.1491C18.1406 61.6752 20.7918 63.9999 23.678 63.9999C25.2452 63.9999 26.512 63.3077 27.0736 62.3674V63.1902C27.0736 63.4383 27.2564 63.6342 27.5176 63.6342H29.5289C29.777 63.6342 29.9729 63.4514 29.9729 63.1902V53.121C29.9729 52.8729 29.7901 52.6117 29.5289 52.6117H27.5176C27.2695 52.6117 27.0736 52.8598 27.0736 53.121V53.996C26.512 53.0557 25.2583 52.3635 23.678 52.3635ZM24.1221 55.0669C25.8199 55.0669 27.0736 56.4513 27.0736 58.1491C27.0736 59.8468 25.8199 61.2312 24.1221 61.2312C22.4243 61.2312 21.1705 59.8468 21.1705 58.1491C21.1052 56.4513 22.4243 55.0669 24.1221 55.0669ZM32.3106 52.677C32.0625 52.677 31.8666 52.8598 31.8666 53.121V54.6882C31.8666 54.9363 32.0494 55.1322 32.3759 55.1975H37.2864L31.8797 61.2443C31.6968 61.4271 31.6315 61.5577 31.6315 61.8058V63.1902C31.6315 63.4383 31.8144 63.6342 32.1409 63.6995H41.0085C41.2567 63.6995 41.4526 63.5167 41.4526 63.2555V61.6883C41.4526 61.4402 41.2697 61.179 41.0085 61.179H35.654L41.0085 55.1322C41.1914 55.0016 41.2567 54.8188 41.2567 54.5706V53.121C41.2567 52.8729 41.0738 52.677 40.7473 52.6117H32.3106V52.677ZM47.7213 52.3635C44.3257 52.3635 41.8705 54.9494 41.8705 58.2144C41.8705 61.4793 44.2604 63.9346 47.7213 63.9346C50.1766 63.9346 51.6262 62.9943 52.5012 61.7928C52.6318 61.6099 52.6841 61.2834 52.4359 61.1006L50.9863 60.095C50.921 60.0297 50.8034 60.0297 50.7381 60.0297C50.6075 60.0297 50.49 60.095 50.3594 60.2125C49.6672 60.97 48.9098 61.3487 47.7735 61.3487C46.2586 61.3487 45.0701 60.3431 44.8742 58.7629H52.7363C53.1803 58.7629 53.2456 58.5147 53.2456 58.2535V57.692C53.3893 54.9363 51.1169 52.3635 47.7213 52.3635ZM47.7213 54.6882C48.9751 54.6882 50.1766 55.511 50.4247 57.0128H45.0179C45.3313 55.6285 46.4023 54.6882 47.7213 54.6882Z" fill="#FBFBFB"/>
</g>
<defs>
<clipPath id="clip0_145_1646">
<rect width="52.9474" height="64" fill="white" transform="translate(0.304688)"/>
</clipPath>
</defs>
</svg>
