<svg width="65" height="60" viewBox="0 0 65 60" fill="none" xmlns="http://www.w3.org/2000/svg">
<path d="M17.8983 35.268L13.6498 33.9194C13.5825 33.9194 13.5825 33.9194 13.5148 33.8522L10.4804 44.6419C10.4804 44.7092 10.4804 44.7769 10.4131 44.8442H15.2012L17.8983 35.268Z" fill="#1dcad3"/>
<path d="M14.2567 31.9637L20.6628 33.9869L20.7301 40.2581H25.3832L25.2482 32.2332C25.2482 31.2219 24.5736 30.3451 23.6296 30.0751L20.7979 29.1988L22.7532 22.118H22.8882L30.8453 19.4209C31.7893 19.0836 32.4638 18.0723 32.1938 17.1282C31.9243 15.9819 30.7775 15.3751 29.6989 15.7119L22.5509 18.1395C22.1464 18.2745 21.6741 18.3418 21.2024 18.409L16.1448 18.6786C15.2007 18.7458 14.4589 19.4204 14.3239 20.2971L13.7171 24.2756L12.6381 29.3332C12.4363 30.48 13.1103 31.6264 14.2566 31.9637L14.2567 31.9637Z" fill="#1dcad3"/>
<path d="M53.0315 25.0179C52.9642 25.0852 52.8292 25.0852 52.7619 25.1529L48.6484 26.5015L49.053 27.9851C49.188 28.5246 49.5252 28.9964 49.997 29.2665L52.762 31.1546H60.5845C60.4495 30.8851 60.18 30.6151 59.91 30.4128L53.3688 25.8947L53.0315 25.0179Z" fill="#1D1934"/>
<path d="M38.1957 16.7909L44.8041 14.2283L46.4227 20.1627L42.7137 21.3762C41.7696 21.7135 41.0951 22.5898 41.0951 23.5344L40.9601 31.1546H45.6132L45.6805 25.2879L52.0866 23.2648C53.1657 22.9275 53.8398 21.8484 53.7052 20.7021L52.7616 14.4982L52.4921 11.1264C52.4248 10.1824 51.8853 9.37325 51.1435 8.90109C50.3344 8.42882 49.3903 8.29429 48.5136 8.63156L36.8475 13.1497C35.8362 13.5542 35.3639 14.6332 35.7684 15.6446C36.1052 16.656 37.1843 17.1955 38.1956 16.791L38.1957 16.7909Z" fill="#1D1934"/>
<path d="M63.0792 33.3124H39.2074C38.3983 33.3124 37.7239 33.987 37.7239 34.796V37.8982H29.564C28.755 37.8982 28.0805 38.5727 28.0805 39.3818V42.484L19.8535 42.4835C19.0444 42.4835 18.3699 43.1581 18.3699 43.9671V47.0693H10.2106C9.4015 47.0693 8.72701 47.7439 8.72701 48.5529V52.5314H1.98356C1.17449 52.5314 0.5 53.2059 0.5 54.0149V58.398C0.5 59.207 1.17454 59.8143 1.91637 59.8143H63.0795C63.8885 59.8143 64.4958 59.1398 64.4958 58.398L64.4954 34.7284C64.5626 33.9194 63.8881 33.3121 63.079 33.3121L63.0792 33.3124Z" fill="#1dcad3"/>
<path d="M49.7269 4.04583C49.7269 6.28068 47.9154 8.09214 45.6806 8.09214C43.4462 8.09214 41.6348 6.28068 41.6348 4.04583C41.6348 1.81146 43.4462 0 45.6806 0C47.9154 0 49.7269 1.81146 49.7269 4.04583" fill="#1D1934"/>
<path d="M23.2929 13.2169C23.2929 15.4518 21.4814 17.2632 19.2466 17.2632C17.0122 17.2632 15.2003 15.4518 15.2003 13.2169C15.2003 10.9825 17.0122 9.17059 19.2466 9.17059C21.4814 9.17059 23.2929 10.9825 23.2929 13.2169Z" fill="#1dcad3"/>
</svg>
