<svg width="64" height="45" viewBox="0 0 64 45" fill="none" xmlns="http://www.w3.org/2000/svg">
<path d="M63.9101 26.3018C63.8324 26.4578 63.6763 26.6916 63.3643 26.6916H61.5718C60.7144 26.6916 60.0131 27.3929 60.0131 28.2502V34.7971C60.0131 36.3557 58.766 37.6029 57.2073 37.6029H52.2969C50.2706 37.6029 48.5559 39.3176 48.5559 41.3439V43.5262C48.5559 43.8378 48.2444 44.1498 47.9323 44.1498H36.8648C36.5533 44.1498 36.2412 43.9161 36.2412 43.5262C36.1635 41.0319 35.8514 39.0057 35.3061 37.0572C34.9163 35.81 34.4487 34.6412 33.8251 33.4717C34.1366 32.9258 34.5264 32.4583 34.9162 31.9907C35.3061 31.4448 35.7736 30.9773 36.1634 30.432C37.4106 28.951 38.6578 27.4701 39.5146 25.5999C40.6834 23.0278 41.307 20.1442 41.307 17.3383C41.307 11.415 38.735 6.1148 34.6819 2.45175C37.0979 1.12684 39.9815 0.347229 42.9434 0.347229C52.3744 0.347229 60.0123 7.98523 60.0123 17.4161V20.6896C60.0123 21.0794 60.1683 21.391 60.4021 21.703L63.9093 25.756C64.0658 25.9121 63.9884 26.2235 63.9101 26.3018ZM27.9018 30.5103C26.6546 29.0293 25.4074 27.5484 24.5506 25.6781C23.3817 23.1061 22.7581 20.2224 22.7581 17.4166C22.7581 11.4933 25.3301 6.19305 29.3833 2.53C26.9673 1.20509 24.0837 0.425475 21.1218 0.425475C11.6907 0.425475 4.05288 8.06348 4.05288 17.4944V20.7679C4.05288 21.1577 3.89685 21.4692 3.66307 21.7813L0.155898 25.8343C-0.077881 26.0681 -0.000136144 26.3801 0.0781534 26.5356C0.155897 26.6917 0.311933 26.9254 0.624 26.9254H2.41649C3.27386 26.9254 3.97515 27.6268 3.97515 28.4841V35.0309C3.97515 36.5896 5.22232 37.8368 6.781 37.8368H11.6914C13.7177 37.8368 15.4324 39.5515 15.4324 41.5778V43.7601C15.4324 44.0716 15.7439 44.3837 16.056 44.3837H27.0457C27.3572 44.3837 27.6693 44.1499 27.6693 43.7601C27.747 41.2657 28.0591 39.2396 28.6044 37.2911C28.9159 36.0439 29.4617 34.8751 30.0854 33.7055C29.7738 33.1597 29.384 32.6922 28.9942 32.2245C28.7594 31.5237 28.2916 30.9778 27.9018 30.5103ZM38.1896 17.3382C38.1896 12.1162 35.7736 7.36188 32.0326 4.24455C28.2916 7.36188 25.8756 12.1164 25.8756 17.3382C25.8756 19.7542 26.4214 22.1704 27.4342 24.3526C28.1356 25.9112 29.2267 27.1584 30.3179 28.4834C30.7855 29.0292 31.253 29.5745 31.6428 30.1204C31.7988 30.2765 31.8766 30.5102 32.0326 30.6663C32.1887 30.5102 32.2664 30.2765 32.4224 30.1204C32.89 29.5746 33.2798 29.0293 33.7473 28.4834C34.8385 27.1585 35.9297 25.8336 36.631 24.3526C37.6444 22.1708 38.1896 19.7542 38.1896 17.3382Z" fill="#1dcad3"/>
</svg>
