<svg width="65" height="65" viewBox="0 0 65 65" fill="none" xmlns="http://www.w3.org/2000/svg">
<path d="M7.61104 31.4195H14.7222C15.2113 31.4195 15.6111 31.8193 15.6111 32.3084C15.6111 35.2509 17.6022 37.6417 20.0555 37.6417C22.5089 37.6417 24.5 35.2509 24.5 32.3084C24.5 31.8193 24.8998 31.4195 25.3889 31.4195H31.6111V26.9303C28.1091 26.5395 25.3889 23.917 25.3889 20.7528C25.3889 17.5881 28.1091 14.9661 31.6111 14.5753V7.41943H25.3269C24.8735 7.41943 24.5 7.75724 24.4469 8.20168C24.1265 10.7974 22.2421 12.7528 20.0556 12.7528C17.869 12.7528 15.9846 10.7975 15.6647 8.20168C15.6111 7.75724 15.2376 7.41943 14.7842 7.41943H8.50002C8.01093 7.41943 7.61113 7.81923 7.61113 8.30832V14.5306C3.69099 14.5306 0.5 17.3217 0.5 20.7528C0.5 24.1839 3.69099 26.975 7.61113 26.975L7.61104 31.4195Z" fill="#FBFBFB"/>
<path d="M27.168 20.7526C27.168 23.2059 29.5588 25.1971 32.5013 25.1971C32.9904 25.1971 33.3902 25.5969 33.3902 26.086V31.4193H38.7683C39.1591 27.9173 41.7816 25.1971 44.9458 25.1971C48.1105 25.1971 50.7325 27.9173 51.1233 31.4193H57.3903V8.30813C57.3903 7.81903 56.9905 7.41924 56.5014 7.41924H51.168C51.168 3.4991 48.3769 0.308105 44.9458 0.308105C41.5147 0.308105 38.7236 3.4991 38.7236 7.41924H33.3902V15.4193C33.3902 15.9084 32.9904 16.3081 32.5013 16.3081C29.5588 16.3081 27.168 18.2993 27.168 20.7526Z" fill="#1dcad3"/>
<path d="M57.3887 37.6413V33.1968H50.2776C49.7885 33.1968 49.3887 32.7971 49.3887 32.308C49.3887 29.3655 47.3976 26.9746 44.9443 26.9746C42.4909 26.9746 40.4998 29.3655 40.4998 32.308C40.4998 32.7971 40.1 33.1968 39.6109 33.1968H33.3887V37.686C36.8906 38.0769 39.6109 40.6993 39.6109 43.8635C39.6109 47.0283 36.8906 49.6502 33.3887 50.0411V57.1969H39.6729C40.1263 57.1969 40.4998 56.8591 40.5528 56.4147C40.8733 53.819 42.7577 51.8635 44.9442 51.8635C47.1308 51.8635 49.0152 53.8188 49.3351 56.4147C49.3887 56.8591 49.7622 57.1969 50.2155 57.1969H56.4998C56.9889 57.1969 57.3887 56.7971 57.3887 56.308V50.0858C61.3088 50.0858 64.4998 47.2947 64.4998 43.8635C64.4998 40.4324 61.3088 37.6413 57.3887 37.6413H57.3887Z" fill="#1dcad3"/>
<path d="M37.8336 43.864C37.8336 41.4106 35.4428 39.4195 32.5003 39.4195C32.0112 39.4195 31.6114 39.0197 31.6114 38.5306V33.1973H26.2333C25.8425 36.6992 23.22 39.4195 20.0558 39.4195C16.8911 39.4195 14.2691 36.6992 13.8783 33.1973H7.61133V38.5926C7.61133 39.046 7.94913 39.4195 8.39358 39.4725C10.9893 39.7841 12.9447 41.6774 12.9447 43.8639C12.9447 46.0505 10.9894 47.9438 8.39358 48.2548C7.94913 48.3084 7.61133 48.6819 7.61133 49.1353V56.3084C7.61133 56.7974 8.01113 57.1972 8.50022 57.1972H13.8336C13.8336 61.1174 16.6247 64.3084 20.0558 64.3084C23.4869 64.3084 26.278 61.1174 26.278 57.1972H31.6114V49.1972C31.6114 48.7081 32.0112 48.3083 32.5003 48.3083C35.4428 48.3083 37.8336 46.3172 37.8336 43.8639V43.864Z" fill="#1dcad3"/>
</svg>
